<?xml version="1.0" encoding="UTF-8"?><svg xmlns="http://www.w3.org/2000/svg" xmlns:xlink="http://www.w3.org/1999/xlink" fill-opacity="1" color-rendering="auto" color-interpolation="auto" text-rendering="auto" stroke="black" stroke-linecap="square" width="956" stroke-miterlimit="10" shape-rendering="auto" stroke-opacity="1" fill="black" stroke-dasharray="none" font-weight="normal" stroke-width="1" height="505" font-family="'Dialog'" font-style="normal" stroke-linejoin="miter" font-size="12px" stroke-dashoffset="0" image-rendering="auto">
  <!--Generated by ySVG 2.6-->
  <defs id="genericDefs"/>
  <g>
    <defs id="defs1">
      <linearGradient x1="216.8897" gradientUnits="userSpaceOnUse" x2="216.8897" y1="111.976" y2="160.464" id="linearGradient1" spreadMethod="pad">
        <stop stop-opacity="1" stop-color="white" offset="0%"/>
        <stop stop-opacity="1" stop-color="white" offset="100%"/>
      </linearGradient>
      <linearGradient x1="0" gradientUnits="userSpaceOnUse" x2="0" y1="245.952" y2="294.44" id="linearGradient2" spreadMethod="pad">
        <stop stop-opacity="1" stop-color="white" offset="0%"/>
        <stop stop-opacity="1" stop-color="white" offset="100%"/>
      </linearGradient>
      <linearGradient x1="192.9524" gradientUnits="userSpaceOnUse" x2="192.9524" y1="245.952" y2="294.44" id="linearGradient3" spreadMethod="pad">
        <stop stop-opacity="1" stop-color="white" offset="0%"/>
        <stop stop-opacity="1" stop-color="white" offset="100%"/>
      </linearGradient>
      <linearGradient x1="599.0497" gradientUnits="userSpaceOnUse" x2="599.0497" y1="111.976" y2="160.464" id="linearGradient4" spreadMethod="pad">
        <stop stop-opacity="1" stop-color="white" offset="0%"/>
        <stop stop-opacity="1" stop-color="white" offset="100%"/>
      </linearGradient>
      <linearGradient x1="583.0508" gradientUnits="userSpaceOnUse" x2="583.0508" y1="245.952" y2="294.44" id="linearGradient5" spreadMethod="pad">
        <stop stop-opacity="1" stop-color="white" offset="0%"/>
        <stop stop-opacity="1" stop-color="white" offset="100%"/>
      </linearGradient>
      <linearGradient x1="782.1929" gradientUnits="userSpaceOnUse" x2="782.1929" y1="245.952" y2="294.44" id="linearGradient6" spreadMethod="pad">
        <stop stop-opacity="1" stop-color="white" offset="0%"/>
        <stop stop-opacity="1" stop-color="white" offset="100%"/>
      </linearGradient>
      <linearGradient x1="375.5631" gradientUnits="userSpaceOnUse" x2="375.5631" y1="379.928" y2="428.416" id="linearGradient7" spreadMethod="pad">
        <stop stop-opacity="1" stop-color="white" offset="0%"/>
        <stop stop-opacity="1" stop-color="white" offset="100%"/>
      </linearGradient>
      <linearGradient x1="397.779" gradientUnits="userSpaceOnUse" x2="397.779" y1="245.952" y2="294.44" id="linearGradient8" spreadMethod="pad">
        <stop stop-opacity="1" stop-color="white" offset="0%"/>
        <stop stop-opacity="1" stop-color="white" offset="100%"/>
      </linearGradient>
      <linearGradient x1="188.4774" gradientUnits="userSpaceOnUse" x2="188.4774" y1="379.928" y2="428.416" id="linearGradient9" spreadMethod="pad">
        <stop stop-opacity="1" stop-color="white" offset="0%"/>
        <stop stop-opacity="1" stop-color="white" offset="100%"/>
      </linearGradient>
      <linearGradient x1="195.4842" gradientUnits="userSpaceOnUse" x2="195.4842" y1="492.904" y2="541.392" id="linearGradient10" spreadMethod="pad">
        <stop stop-opacity="1" stop-color="white" offset="0%"/>
        <stop stop-opacity="1" stop-color="white" offset="100%"/>
      </linearGradient>
      <linearGradient x1="600.2377" gradientUnits="userSpaceOnUse" x2="600.2377" y1="379.928" y2="428.416" id="linearGradient11" spreadMethod="pad">
        <stop stop-opacity="1" stop-color="white" offset="0%"/>
        <stop stop-opacity="1" stop-color="white" offset="100%"/>
      </linearGradient>
      <linearGradient x1="594.3004" gradientUnits="userSpaceOnUse" x2="594.3004" y1="492.904" y2="541.392" id="linearGradient12" spreadMethod="pad">
        <stop stop-opacity="1" stop-color="white" offset="0%"/>
        <stop stop-opacity="1" stop-color="white" offset="100%"/>
      </linearGradient>
      <linearGradient x1="376.7506" gradientUnits="userSpaceOnUse" x2="376.7506" y1="111.976" y2="160.464" id="linearGradient13" spreadMethod="pad">
        <stop stop-opacity="1" stop-color="white" offset="0%"/>
        <stop stop-opacity="1" stop-color="white" offset="100%"/>
      </linearGradient>
      <clipPath clipPathUnits="userSpaceOnUse" id="clipPath1">
        <path d="M0 0 L956 0 L956 505 L0 505 L0 0 Z"/>
      </clipPath>
      <clipPath clipPathUnits="userSpaceOnUse" id="clipPath2">
        <path d="M-15 97 L941 97 L941 602 L-15 602 L-15 97 Z"/>
      </clipPath>
    </defs>
    <g fill="white" text-rendering="geometricPrecision" shape-rendering="geometricPrecision" transform="translate(15,-97)" stroke="white">
      <rect x="-15" width="956" height="505" y="97" clip-path="url(#clipPath2)" stroke="none"/>
    </g>
    <g fill="white" text-rendering="geometricPrecision" shape-rendering="geometricPrecision" transform="matrix(1,0,0,1,15,-97)" stroke="white">
      <path d="M216.8897 158.464 L323.8417 158.464 L323.8417 195.952 Q323.8417 205.952 313.8417 205.952 L226.8897 205.952 Q216.8897 205.952 216.8897 195.952 Z" stroke="none" clip-path="url(#clipPath2)"/>
      <path fill="url(#linearGradient1)" d="M216.8897 122.976 Q216.8897 112.976 226.8897 112.976 L313.8417 112.976 Q323.8417 112.976 323.8417 122.976 L323.8417 159.464 L216.8897 159.464 Z" clip-path="url(#clipPath2)" stroke="none"/>
      <path fill="none" d="M218.8897 122.976 Q218.8897 114.976 226.8897 114.976 L313.8417 114.976 Q321.8417 114.976 321.8417 122.976 L321.8417 195.952 Q321.8417 203.952 313.8417 203.952 L226.8897 203.952 Q218.8897 203.952 218.8897 195.952 Z" stroke-width="2" clip-path="url(#clipPath2)" stroke="rgb(217,217,217)"/>
      <path fill="none" d="M218.8897 122.976 Q218.8897 114.976 226.8897 114.976 L313.8417 114.976 Q321.8417 114.976 321.8417 122.976 L321.8417 195.952 Q321.8417 203.952 313.8417 203.952 L226.8897 203.952 Q218.8897 203.952 218.8897 195.952 Z" clip-path="url(#clipPath2)" stroke="black"/>
    </g>
    <g text-rendering="geometricPrecision" stroke-miterlimit="1.45" shape-rendering="geometricPrecision" font-family="sans-serif" transform="matrix(1,0,0,1,15,-97)" stroke-linecap="butt">
      <text x="250.2768" xml:space="preserve" y="149.8663" clip-path="url(#clipPath2)" stroke="none">DEATH</text>
      <text x="236.4633" xml:space="preserve" y="163.9992" clip-path="url(#clipPath2)" stroke="none">instance of </text>
      <text x="220.9917" xml:space="preserve" y="178.132" clip-path="url(#clipPath2)" stroke="none">e/crm:E69 Death</text>
    </g>
    <g fill="white" text-rendering="geometricPrecision" shape-rendering="geometricPrecision" transform="matrix(1,0,0,1,15,-97)" stroke="white">
      <path d="M0 292.44 L142.952 292.44 L142.952 329.928 Q142.952 339.928 132.952 339.928 L10 339.928 Q0 339.928 0 329.928 Z" stroke="none" clip-path="url(#clipPath2)"/>
      <path fill="url(#linearGradient2)" d="M0 256.952 Q0 246.952 10 246.952 L132.952 246.952 Q142.952 246.952 142.952 256.952 L142.952 293.44 L0 293.44 Z" clip-path="url(#clipPath2)" stroke="none"/>
      <path fill="none" d="M2 256.952 Q2 248.952 10 248.952 L132.952 248.952 Q140.952 248.952 140.952 256.952 L140.952 329.928 Q140.952 337.928 132.952 337.928 L10 337.928 Q2 337.928 2 329.928 Z" stroke-width="2" clip-path="url(#clipPath2)" stroke="rgb(217,217,217)"/>
      <path fill="none" d="M2 256.952 Q2 248.952 10 248.952 L132.952 248.952 Q140.952 248.952 140.952 256.952 L140.952 329.928 Q140.952 337.928 132.952 337.928 L10 337.928 Q2 337.928 2 329.928 Z" clip-path="url(#clipPath2)" stroke="black"/>
    </g>
    <g text-rendering="geometricPrecision" stroke-miterlimit="1.45" shape-rendering="geometricPrecision" font-family="sans-serif" transform="matrix(1,0,0,1,15,-97)" stroke-linecap="butt">
      <text x="35.7074" xml:space="preserve" y="283.8423" clip-path="url(#clipPath2)" stroke="none">DEATHDATE</text>
      <text x="39.4721" xml:space="preserve" y="297.9752" clip-path="url(#clipPath2)" stroke="none">instance of</text>
      <text x="7.2309" xml:space="preserve" y="312.108" clip-path="url(#clipPath2)" stroke="none">e/crm:E52 Time-Span</text>
    </g>
    <g fill="white" text-rendering="geometricPrecision" shape-rendering="geometricPrecision" transform="matrix(1,0,0,1,15,-97)" stroke="white">
      <path d="M192.9524 292.44 L347.779 292.44 L347.779 329.928 Q347.779 339.928 337.779 339.928 L202.9524 339.928 Q192.9524 339.928 192.9524 329.928 Z" stroke="none" clip-path="url(#clipPath2)"/>
      <path fill="url(#linearGradient3)" d="M192.9524 256.952 Q192.9524 246.952 202.9524 246.952 L337.779 246.952 Q347.779 246.952 347.779 256.952 L347.779 293.44 L192.9524 293.44 Z" clip-path="url(#clipPath2)" stroke="none"/>
      <path fill="none" d="M194.9524 256.952 Q194.9524 248.952 202.9524 248.952 L337.779 248.952 Q345.779 248.952 345.779 256.952 L345.779 329.928 Q345.779 337.928 337.779 337.928 L202.9524 337.928 Q194.9524 337.928 194.9524 329.928 Z" stroke-width="2" clip-path="url(#clipPath2)" stroke="rgb(217,217,217)"/>
      <path fill="none" d="M194.9524 256.952 Q194.9524 248.952 202.9524 248.952 L337.779 248.952 Q345.779 248.952 345.779 256.952 L345.779 329.928 Q345.779 337.928 337.779 337.928 L202.9524 337.928 Q194.9524 337.928 194.9524 329.928 Z" clip-path="url(#clipPath2)" stroke="black"/>
    </g>
    <g text-rendering="geometricPrecision" stroke-miterlimit="1.45" shape-rendering="geometricPrecision" font-family="sans-serif" transform="matrix(1,0,0,1,15,-97)" stroke-linecap="butt">
      <text x="232.2182" xml:space="preserve" y="283.8423" clip-path="url(#clipPath2)" stroke="none">DEATHPLACE</text>
      <text x="236.4633" xml:space="preserve" y="297.9752" clip-path="url(#clipPath2)" stroke="none">instance of </text>
      <text x="223.3295" xml:space="preserve" y="312.108" clip-path="url(#clipPath2)" stroke="none">e/crm:E53 Place</text>
    </g>
    <g fill="white" text-rendering="geometricPrecision" shape-rendering="geometricPrecision" transform="matrix(1,0,0,1,15,-97)" stroke="white">
      <path d="M599.0497 158.464 L716.1935 158.464 L716.1935 195.952 Q716.1935 205.952 706.1935 205.952 L609.0497 205.952 Q599.0497 205.952 599.0497 195.952 Z" stroke="none" clip-path="url(#clipPath2)"/>
      <path fill="url(#linearGradient4)" d="M599.0497 122.976 Q599.0497 112.976 609.0497 112.976 L706.1935 112.976 Q716.1935 112.976 716.1935 122.976 L716.1935 159.464 L599.0497 159.464 Z" clip-path="url(#clipPath2)" stroke="none"/>
      <path fill="none" d="M601.0497 122.976 Q601.0497 114.976 609.0497 114.976 L706.1935 114.976 Q714.1935 114.976 714.1935 122.976 L714.1935 195.952 Q714.1935 203.952 706.1935 203.952 L609.0497 203.952 Q601.0497 203.952 601.0497 195.952 Z" stroke-width="2" clip-path="url(#clipPath2)" stroke="rgb(217,217,217)"/>
      <path fill="none" d="M601.0497 122.976 Q601.0497 114.976 609.0497 114.976 L706.1935 114.976 Q714.1935 114.976 714.1935 122.976 L714.1935 195.952 Q714.1935 203.952 706.1935 203.952 L609.0497 203.952 Q601.0497 203.952 601.0497 195.952 Z" clip-path="url(#clipPath2)" stroke="black"/>
    </g>
    <g text-rendering="geometricPrecision" stroke-miterlimit="1.45" shape-rendering="geometricPrecision" font-family="sans-serif" transform="matrix(1,0,0,1,15,-97)" stroke-linecap="butt">
      <text x="640.4449" xml:space="preserve" y="149.8663" clip-path="url(#clipPath2)" stroke="none">BIRTH</text>
      <text x="623.7193" xml:space="preserve" y="163.9992" clip-path="url(#clipPath2)" stroke="none">instance of </text>
      <text x="611.7574" xml:space="preserve" y="178.132" clip-path="url(#clipPath2)" stroke="none">e/crm:E67 Birth</text>
    </g>
    <g fill="white" text-rendering="geometricPrecision" shape-rendering="geometricPrecision" transform="matrix(1,0,0,1,15,-97)" stroke="white">
      <path d="M583.0508 292.44 L732.1925 292.44 L732.1925 329.928 Q732.1925 339.928 722.1925 339.928 L593.0508 339.928 Q583.0508 339.928 583.0508 329.928 Z" stroke="none" clip-path="url(#clipPath2)"/>
      <path fill="url(#linearGradient5)" d="M583.0508 256.952 Q583.0508 246.952 593.0508 246.952 L722.1925 246.952 Q732.1925 246.952 732.1925 256.952 L732.1925 293.44 L583.0508 293.44 Z" clip-path="url(#clipPath2)" stroke="none"/>
      <path fill="none" d="M585.0508 256.952 Q585.0508 248.952 593.0508 248.952 L722.1925 248.952 Q730.1925 248.952 730.1925 256.952 L730.1925 329.928 Q730.1925 337.928 722.1925 337.928 L593.0508 337.928 Q585.0508 337.928 585.0508 329.928 Z" stroke-width="2" clip-path="url(#clipPath2)" stroke="rgb(217,217,217)"/>
      <path fill="none" d="M585.0508 256.952 Q585.0508 248.952 593.0508 248.952 L722.1925 248.952 Q730.1925 248.952 730.1925 256.952 L730.1925 329.928 Q730.1925 337.928 722.1925 337.928 L593.0508 337.928 Q585.0508 337.928 585.0508 329.928 Z" clip-path="url(#clipPath2)" stroke="black"/>
    </g>
    <g text-rendering="geometricPrecision" stroke-miterlimit="1.45" shape-rendering="geometricPrecision" font-family="sans-serif" transform="matrix(1,0,0,1,15,-97)" stroke-linecap="butt">
      <text x="624.7652" xml:space="preserve" y="283.8423" clip-path="url(#clipPath2)" stroke="none">BIRTHDATE</text>
      <text x="623.7193" xml:space="preserve" y="297.9752" clip-path="url(#clipPath2)" stroke="none">instance of </text>
      <text x="593.3765" xml:space="preserve" y="312.108" clip-path="url(#clipPath2)" stroke="none">e/crm:E52 Time-Span</text>
    </g>
    <g fill="white" text-rendering="geometricPrecision" shape-rendering="geometricPrecision" transform="matrix(1,0,0,1,15,-97)" stroke="white">
      <path d="M782.1929 292.44 L925.1449 292.44 L925.1449 329.928 Q925.1449 339.928 915.1449 339.928 L792.1929 339.928 Q782.1929 339.928 782.1929 329.928 Z" stroke="none" clip-path="url(#clipPath2)"/>
      <path fill="url(#linearGradient6)" d="M782.1929 256.952 Q782.1929 246.952 792.1929 246.952 L915.1449 246.952 Q925.1449 246.952 925.1449 256.952 L925.1449 293.44 L782.1929 293.44 Z" clip-path="url(#clipPath2)" stroke="none"/>
      <path fill="none" d="M784.1929 256.952 Q784.1929 248.952 792.1929 248.952 L915.1449 248.952 Q923.1449 248.952 923.1449 256.952 L923.1449 329.928 Q923.1449 337.928 915.1449 337.928 L792.1929 337.928 Q784.1929 337.928 784.1929 329.928 Z" stroke-width="2" clip-path="url(#clipPath2)" stroke="rgb(217,217,217)"/>
      <path fill="none" d="M784.1929 256.952 Q784.1929 248.952 792.1929 248.952 L915.1449 248.952 Q923.1449 248.952 923.1449 256.952 L923.1449 329.928 Q923.1449 337.928 915.1449 337.928 L792.1929 337.928 Q784.1929 337.928 784.1929 329.928 Z" clip-path="url(#clipPath2)" stroke="black"/>
    </g>
    <g text-rendering="geometricPrecision" stroke-miterlimit="1.45" shape-rendering="geometricPrecision" font-family="sans-serif" transform="matrix(1,0,0,1,15,-97)" stroke-linecap="butt">
      <text x="818.4335" xml:space="preserve" y="283.8423" clip-path="url(#clipPath2)" stroke="none">BIRTHPLACE</text>
      <text x="819.7665" xml:space="preserve" y="297.9752" clip-path="url(#clipPath2)" stroke="none">instance of </text>
      <text x="806.6328" xml:space="preserve" y="312.108" clip-path="url(#clipPath2)" stroke="none">e/crm:E53 Place</text>
    </g>
    <g fill="white" text-rendering="geometricPrecision" shape-rendering="geometricPrecision" transform="matrix(1,0,0,1,15,-97)" stroke="white">
      <path d="M375.5631 426.416 L550.2374 426.416 L550.2374 463.904 Q550.2374 473.904 540.2374 473.904 L385.5631 473.904 Q375.5631 473.904 375.5631 463.904 Z" stroke="none" clip-path="url(#clipPath2)"/>
      <path fill="url(#linearGradient7)" d="M375.5631 390.928 Q375.5631 380.928 385.5631 380.928 L540.2374 380.928 Q550.2374 380.928 550.2374 390.928 L550.2374 427.416 L375.5631 427.416 Z" clip-path="url(#clipPath2)" stroke="none"/>
      <path fill="none" d="M377.5631 390.928 Q377.5631 382.928 385.5631 382.928 L540.2374 382.928 Q548.2374 382.928 548.2374 390.928 L548.2374 463.904 Q548.2374 471.904 540.2374 471.904 L385.5631 471.904 Q377.5631 471.904 377.5631 463.904 Z" stroke-width="2" clip-path="url(#clipPath2)" stroke="rgb(217,217,217)"/>
      <path fill="none" d="M377.5631 390.928 Q377.5631 382.928 385.5631 382.928 L540.2374 382.928 Q548.2374 382.928 548.2374 390.928 L548.2374 463.904 Q548.2374 471.904 540.2374 471.904 L385.5631 471.904 Q377.5631 471.904 377.5631 463.904 Z" clip-path="url(#clipPath2)" stroke="black"/>
    </g>
    <g text-rendering="geometricPrecision" stroke-miterlimit="1.45" shape-rendering="geometricPrecision" font-family="sans-serif" transform="matrix(1,0,0,1,15,-97)" stroke-linecap="butt">
      <text x="445.908" xml:space="preserve" y="417.8183" clip-path="url(#clipPath2)" stroke="none">NAME</text>
      <text x="430.8963" xml:space="preserve" y="431.9511" clip-path="url(#clipPath2)" stroke="none">instance of</text>
      <text x="397.4393" xml:space="preserve" y="446.084" clip-path="url(#clipPath2)" stroke="none">e/crm:E41 Appellation</text>
    </g>
    <g fill="white" text-rendering="geometricPrecision" shape-rendering="geometricPrecision" transform="matrix(1,0,0,1,15,-97)" stroke="white">
      <path d="M397.779 292.44 L528.0214 292.44 L528.0214 329.928 Q528.0214 339.928 518.0214 339.928 L407.779 339.928 Q397.779 339.928 397.779 329.928 Z" stroke="none" clip-path="url(#clipPath2)"/>
      <path fill="url(#linearGradient8)" d="M397.779 256.952 Q397.779 246.952 407.779 246.952 L518.0214 246.952 Q528.0214 246.952 528.0214 256.952 L528.0214 293.44 L397.779 293.44 Z" clip-path="url(#clipPath2)" stroke="none"/>
      <path fill="none" d="M399.779 256.952 Q399.779 248.952 407.779 248.952 L518.0214 248.952 Q526.0214 248.952 526.0214 256.952 L526.0214 329.928 Q526.0214 337.928 518.0214 337.928 L407.779 337.928 Q399.779 337.928 399.779 329.928 Z" stroke-width="2" clip-path="url(#clipPath2)" stroke="rgb(217,217,217)"/>
      <path fill="none" d="M399.779 256.952 Q399.779 248.952 407.779 248.952 L518.0214 248.952 Q526.0214 248.952 526.0214 256.952 L526.0214 329.928 Q526.0214 337.928 518.0214 337.928 L407.779 337.928 Q399.779 337.928 399.779 329.928 Z" clip-path="url(#clipPath2)" stroke="black"/>
    </g>
    <g text-rendering="geometricPrecision" stroke-miterlimit="1.45" shape-rendering="geometricPrecision" font-family="sans-serif" transform="matrix(1,0,0,1,15,-97)" stroke-linecap="butt">
      <text x="440.2127" xml:space="preserve" y="283.8423" clip-path="url(#clipPath2)" stroke="none">PERSON</text>
      <text x="428.9979" xml:space="preserve" y="297.9752" clip-path="url(#clipPath2)" stroke="none">instance of </text>
      <text x="411.0623" xml:space="preserve" y="312.108" clip-path="url(#clipPath2)" stroke="none">e/crm:E21 Person</text>
    </g>
    <g fill="white" text-rendering="geometricPrecision" shape-rendering="geometricPrecision" transform="matrix(1,0,0,1,15,-97)" stroke="white">
      <path d="M188.4774 426.416 L325.5627 426.416 L325.5627 463.904 Q325.5627 473.904 315.5627 473.904 L198.4774 473.904 Q188.4774 473.904 188.4774 463.904 Z" stroke="none" clip-path="url(#clipPath2)"/>
      <path fill="url(#linearGradient9)" d="M188.4774 390.928 Q188.4774 380.928 198.4774 380.928 L315.5627 380.928 Q325.5627 380.928 325.5627 390.928 L325.5627 427.416 L188.4774 427.416 Z" clip-path="url(#clipPath2)" stroke="none"/>
      <path fill="none" d="M190.4774 390.928 Q190.4774 382.928 198.4774 382.928 L315.5627 382.928 Q323.5627 382.928 323.5627 390.928 L323.5627 463.904 Q323.5627 471.904 315.5627 471.904 L198.4774 471.904 Q190.4774 471.904 190.4774 463.904 Z" stroke-width="2" clip-path="url(#clipPath2)" stroke="rgb(217,217,217)"/>
      <path fill="none" d="M190.4774 390.928 Q190.4774 382.928 198.4774 382.928 L315.5627 382.928 Q323.5627 382.928 323.5627 390.928 L323.5627 463.904 Q323.5627 471.904 315.5627 471.904 L198.4774 471.904 Q190.4774 471.904 190.4774 463.904 Z" clip-path="url(#clipPath2)" stroke="black"/>
    </g>
    <g text-rendering="geometricPrecision" stroke-miterlimit="1.45" shape-rendering="geometricPrecision" font-family="sans-serif" transform="matrix(1,0,0,1,15,-97)" stroke-linecap="butt">
      <text x="219.8247" xml:space="preserve" y="417.8183" clip-path="url(#clipPath2)" stroke="none">WIKIDATA ID</text>
      <text x="225.0161" xml:space="preserve" y="431.9511" clip-path="url(#clipPath2)" stroke="none">instance of</text>
      <text x="198.4761" xml:space="preserve" y="446.084" clip-path="url(#clipPath2)" stroke="none">e/crm:E42 Identifier</text>
    </g>
    <g fill="white" text-rendering="geometricPrecision" shape-rendering="geometricPrecision" transform="matrix(1,0,0,1,15,-97)" stroke="white">
      <path d="M195.4842 539.392 L318.5559 539.392 L318.5559 576.88 Q318.5559 586.88 308.5559 586.88 L205.4842 586.88 Q195.4842 586.88 195.4842 576.88 Z" stroke="none" clip-path="url(#clipPath2)"/>
      <path fill="url(#linearGradient10)" d="M195.4842 503.904 Q195.4842 493.904 205.4842 493.904 L308.5559 493.904 Q318.5559 493.904 318.5559 503.904 L318.5559 540.392 L195.4842 540.392 Z" clip-path="url(#clipPath2)" stroke="none"/>
      <path fill="none" d="M197.4842 503.904 Q197.4842 495.904 205.4842 495.904 L308.5559 495.904 Q316.5559 495.904 316.5559 503.904 L316.5559 576.88 Q316.5559 584.88 308.5559 584.88 L205.4842 584.88 Q197.4842 584.88 197.4842 576.88 Z" stroke-width="2" clip-path="url(#clipPath2)" stroke="rgb(217,217,217)"/>
      <path fill="none" d="M197.4842 503.904 Q197.4842 495.904 205.4842 495.904 L308.5559 495.904 Q316.5559 495.904 316.5559 503.904 L316.5559 576.88 Q316.5559 584.88 308.5559 584.88 L205.4842 584.88 Q197.4842 584.88 197.4842 576.88 Z" clip-path="url(#clipPath2)" stroke="black"/>
    </g>
    <g text-rendering="geometricPrecision" stroke-miterlimit="1.45" shape-rendering="geometricPrecision" font-family="sans-serif" transform="matrix(1,0,0,1,15,-97)" stroke-linecap="butt">
      <text x="208.7652" xml:space="preserve" y="544.9272" clip-path="url(#clipPath2)" stroke="none">wikidata_id_type</text>
    </g>
    <g fill="white" text-rendering="geometricPrecision" shape-rendering="geometricPrecision" transform="matrix(1,0,0,1,15,-97)" stroke="white">
      <path d="M600.2377 426.416 L743.1897 426.416 L743.1897 463.904 Q743.1897 473.904 733.1897 473.904 L610.2377 473.904 Q600.2377 473.904 600.2377 463.904 Z" stroke="none" clip-path="url(#clipPath2)"/>
      <path fill="url(#linearGradient11)" d="M600.2377 390.928 Q600.2377 380.928 610.2377 380.928 L733.1897 380.928 Q743.1897 380.928 743.1897 390.928 L743.1897 427.416 L600.2377 427.416 Z" clip-path="url(#clipPath2)" stroke="none"/>
      <path fill="none" d="M602.2377 390.928 Q602.2377 382.928 610.2377 382.928 L733.1897 382.928 Q741.1897 382.928 741.1897 390.928 L741.1897 463.904 Q741.1897 471.904 733.1897 471.904 L610.2377 471.904 Q602.2377 471.904 602.2377 463.904 Z" stroke-width="2" clip-path="url(#clipPath2)" stroke="rgb(217,217,217)"/>
      <path fill="none" d="M602.2377 390.928 Q602.2377 382.928 610.2377 382.928 L733.1897 382.928 Q741.1897 382.928 741.1897 390.928 L741.1897 463.904 Q741.1897 471.904 733.1897 471.904 L610.2377 471.904 Q602.2377 471.904 602.2377 463.904 Z" clip-path="url(#clipPath2)" stroke="black"/>
    </g>
    <g text-rendering="geometricPrecision" stroke-miterlimit="1.45" shape-rendering="geometricPrecision" font-family="sans-serif" transform="matrix(1,0,0,1,15,-97)" stroke-linecap="butt">
      <text x="620.3006" xml:space="preserve" y="417.8183" clip-path="url(#clipPath2)" stroke="none">GUESSED GENDER</text>
      <text x="639.7098" xml:space="preserve" y="431.9511" clip-path="url(#clipPath2)" stroke="none">instance of</text>
      <text x="625.41" xml:space="preserve" y="446.084" clip-path="url(#clipPath2)" stroke="none">e/crm:E55 Type</text>
    </g>
    <g fill="white" text-rendering="geometricPrecision" shape-rendering="geometricPrecision" transform="matrix(1,0,0,1,15,-97)" stroke="white">
      <path d="M594.3004 539.392 L749.127 539.392 L749.127 576.88 Q749.127 586.88 739.127 586.88 L604.3004 586.88 Q594.3004 586.88 594.3004 576.88 Z" stroke="none" clip-path="url(#clipPath2)"/>
      <path fill="url(#linearGradient12)" d="M594.3004 503.904 Q594.3004 493.904 604.3004 493.904 L739.127 493.904 Q749.127 493.904 749.127 503.904 L749.127 540.392 L594.3004 540.392 Z" clip-path="url(#clipPath2)" stroke="none"/>
      <path fill="none" d="M596.3004 503.904 Q596.3004 495.904 604.3004 495.904 L739.127 495.904 Q747.127 495.904 747.127 503.904 L747.127 576.88 Q747.127 584.88 739.127 584.88 L604.3004 584.88 Q596.3004 584.88 596.3004 576.88 Z" stroke-width="2" clip-path="url(#clipPath2)" stroke="rgb(217,217,217)"/>
      <path fill="none" d="M596.3004 503.904 Q596.3004 495.904 604.3004 495.904 L739.127 495.904 Q747.127 495.904 747.127 503.904 L747.127 576.88 Q747.127 584.88 739.127 584.88 L604.3004 584.88 Q596.3004 584.88 596.3004 576.88 Z" clip-path="url(#clipPath2)" stroke="black"/>
    </g>
    <g text-rendering="geometricPrecision" stroke-miterlimit="1.45" shape-rendering="geometricPrecision" font-family="sans-serif" transform="matrix(1,0,0,1,15,-97)" stroke-linecap="butt">
      <text x="608.5877" xml:space="preserve" y="544.9272" clip-path="url(#clipPath2)" stroke="none">wikidata_gender_type</text>
    </g>
    <g fill="white" text-rendering="geometricPrecision" shape-rendering="geometricPrecision" transform="matrix(1,0,0,1,15,-97)" stroke="white">
      <path d="M376.7506 158.464 L549.0497 158.464 L549.0497 195.952 Q549.0497 205.952 539.0497 205.952 L386.7506 205.952 Q376.7506 205.952 376.7506 195.952 Z" stroke="none" clip-path="url(#clipPath2)"/>
      <path fill="url(#linearGradient13)" d="M376.7506 122.976 Q376.7506 112.976 386.7506 112.976 L539.0497 112.976 Q549.0497 112.976 549.0497 122.976 L549.0497 159.464 L376.7506 159.464 Z" clip-path="url(#clipPath2)" stroke="none"/>
      <path fill="none" d="M378.7506 122.976 Q378.7506 114.976 386.7506 114.976 L539.0497 114.976 Q547.0497 114.976 547.0497 122.976 L547.0497 195.952 Q547.0497 203.952 539.0497 203.952 L386.7506 203.952 Q378.7506 203.952 378.7506 195.952 Z" stroke-width="2" clip-path="url(#clipPath2)" stroke="rgb(217,217,217)"/>
      <path fill="none" d="M378.7506 122.976 Q378.7506 114.976 386.7506 114.976 L539.0497 114.976 Q547.0497 114.976 547.0497 122.976 L547.0497 195.952 Q547.0497 203.952 539.0497 203.952 L386.7506 203.952 Q378.7506 203.952 378.7506 195.952 Z" clip-path="url(#clipPath2)" stroke="black"/>
    </g>
    <g text-rendering="geometricPrecision" stroke-miterlimit="1.45" shape-rendering="geometricPrecision" font-family="sans-serif" transform="matrix(1,0,0,1,15,-97)" stroke-linecap="butt">
      <text x="389.7488" xml:space="preserve" y="149.8663" clip-path="url(#clipPath2)" stroke="none">VISUAL REPRESENTATION</text>
      <text x="430.8963" xml:space="preserve" y="163.9992" clip-path="url(#clipPath2)" stroke="none">instance of</text>
      <text x="398.3416" xml:space="preserve" y="178.132" clip-path="url(#clipPath2)" stroke="none">e/crm:E36 Visual Item</text>
    </g>
    <g text-rendering="geometricPrecision" stroke-miterlimit="1.45" shape-rendering="geometricPrecision" transform="matrix(1,0,0,1,15,-97)" stroke-linecap="butt">
      <path fill="none" d="M234.715 205.952 L234.715 226.452 L71.476 226.452 L71.476 238.912" clip-path="url(#clipPath2)"/>
    </g>
    <g text-rendering="geometricPrecision" stroke-miterlimit="1.45" shape-rendering="geometricPrecision" transform="matrix(1,0,0,1,15,-97)" stroke-linecap="butt">
      <path d="M71.476 246.912 L76.476 234.912 L71.476 237.912 L66.476 234.912 Z" stroke="none" clip-path="url(#clipPath2)"/>
      <text x="51.1408" xml:space="preserve" y="220.7372" clip-path="url(#clipPath2)" font-family="sans-serif" stroke="none">e/crm:P4 has time-span</text>
      <path fill="none" d="M270.3657 205.952 L270.3657 238.912" clip-path="url(#clipPath2)"/>
      <path d="M270.3657 246.912 L275.3657 234.912 L270.3657 237.912 L265.3657 234.912 Z" clip-path="url(#clipPath2)" stroke="none"/>
      <text x="272.3657" xml:space="preserve" y="241.2372" clip-path="url(#clipPath2)" font-family="sans-serif" stroke="none">e/crm:P7 took place at</text>
      <path fill="none" d="M657.6216 205.952 L657.6216 238.912" clip-path="url(#clipPath2)"/>
      <path d="M657.6216 246.912 L662.6216 234.912 L657.6216 237.912 L652.6216 234.912 Z" clip-path="url(#clipPath2)" stroke="none"/>
      <text x="659.6216" xml:space="preserve" y="241.2372" clip-path="url(#clipPath2)" font-family="sans-serif" stroke="none">e/crm:P4 has time-span</text>
      <path fill="none" d="M696.6696 205.952 L696.6696 226.452 L853.6689 226.452 L853.6689 238.912" clip-path="url(#clipPath2)"/>
      <path d="M853.6689 246.912 L858.6689 234.912 L853.6689 237.912 L848.6689 234.912 Z" clip-path="url(#clipPath2)" stroke="none"/>
      <text x="698.6696" xml:space="preserve" y="220.7372" clip-path="url(#clipPath2)" font-family="sans-serif" stroke="none">e/crm:P7 took place at</text>
      <path fill="none" d="M618.5737 205.952 L618.5737 226.452 L506.3143 226.452 L506.3143 238.912" clip-path="url(#clipPath2)"/>
      <path d="M506.3143 246.912 L511.3143 234.912 L506.3143 237.912 L501.3143 234.912 Z" clip-path="url(#clipPath2)" stroke="none"/>
      <text x="482.572" xml:space="preserve" y="240.0536" clip-path="url(#clipPath2)" font-family="sans-serif" stroke="none">e/crm:P98 brought into life</text>
      <path fill="none" d="M306.0164 205.952 L306.0164 226.452 L419.4861 226.452 L419.4861 238.912" clip-path="url(#clipPath2)"/>
      <path d="M419.4861 246.912 L424.4861 234.912 L419.4861 237.912 L414.4861 234.912 Z" clip-path="url(#clipPath2)" stroke="none"/>
      <text x="308.0164" xml:space="preserve" y="220.7372" clip-path="url(#clipPath2)" font-family="sans-serif" stroke="none">e/crm:P100 was death of</text>
      <path fill="none" d="M462.9002 339.928 L462.9002 372.888" clip-path="url(#clipPath2)"/>
      <path d="M462.9002 380.888 L467.9002 368.888 L462.9002 371.888 L457.9002 368.888 Z" clip-path="url(#clipPath2)" stroke="none"/>
      <text x="464.9002" xml:space="preserve" y="375.2132" clip-path="url(#clipPath2)" font-family="sans-serif" stroke="none">e/crm:P131 is identified by</text>
      <path fill="none" d="M419.4861 339.928 L419.4861 360.428 L257.0201 360.428 L257.0201 372.888" clip-path="url(#clipPath2)"/>
      <path d="M257.0201 380.888 L262.0201 368.888 L257.0201 371.888 L252.0201 368.888 Z" clip-path="url(#clipPath2)" stroke="none"/>
      <text x="234.2009" xml:space="preserve" y="354.7132" clip-path="url(#clipPath2)" font-family="sans-serif" stroke="none">e/crm:P1 is identified by</text>
      <path fill="none" d="M257.0201 473.904 L257.0201 485.8649" clip-path="url(#clipPath2)"/>
      <path d="M257.0201 493.8649 L262.0201 481.8649 L257.0201 484.8649 L252.0201 481.8649 Z" clip-path="url(#clipPath2)" stroke="none"/>
      <text x="259.0201" xml:space="preserve" y="488.4391" clip-path="url(#clipPath2)" font-family="sans-serif" stroke="none">e/crm:P2 has type</text>
      <path fill="none" d="M506.3143 339.928 L506.3143 360.428 L671.7137 360.428 L671.7137 372.888" clip-path="url(#clipPath2)"/>
      <path d="M671.7137 380.888 L676.7137 368.888 L671.7137 371.888 L666.7137 368.888 Z" clip-path="url(#clipPath2)" stroke="none"/>
      <text x="548.3143" xml:space="preserve" y="354.7132" clip-path="url(#clipPath2)" font-family="sans-serif" stroke="none">e/crm:P2 has type</text>
      <path fill="none" d="M671.7137 473.904 L671.7137 485.8649" clip-path="url(#clipPath2)"/>
      <path d="M671.7137 493.8649 L676.7137 481.8649 L671.7137 484.8649 L666.7137 481.8649 Z" clip-path="url(#clipPath2)" stroke="none"/>
      <text x="673.7137" xml:space="preserve" y="488.4391" clip-path="url(#clipPath2)" font-family="sans-serif" stroke="none">e/crm:P2 has type</text>
      <path fill="none" d="M462.9002 205.952 L462.9002 238.912" clip-path="url(#clipPath2)"/>
      <path d="M462.9002 246.912 L467.9002 234.912 L462.9002 237.912 L457.9002 234.912 Z" clip-path="url(#clipPath2)" stroke="none"/>
      <text x="464.9002" xml:space="preserve" y="220.7372" clip-path="url(#clipPath2)" font-family="sans-serif" stroke="none">e/crm:P138 represents</text>
    </g>
  </g>
</svg>
