<?xml version="1.0" encoding="UTF-8"?><svg xmlns="http://www.w3.org/2000/svg" xmlns:xlink="http://www.w3.org/1999/xlink" fill-opacity="1" color-rendering="auto" color-interpolation="auto" text-rendering="auto" stroke="black" stroke-linecap="square" width="550" stroke-miterlimit="10" shape-rendering="auto" stroke-opacity="1" fill="black" stroke-dasharray="none" font-weight="normal" stroke-width="1" height="809" font-family="'Dialog'" font-style="normal" stroke-linejoin="miter" font-size="12px" stroke-dashoffset="0" image-rendering="auto">
  <!--Generated by ySVG 2.6-->
  <defs id="genericDefs"/>
  <g>
    <defs id="defs1">
      <linearGradient x1="14.9235" gradientUnits="userSpaceOnUse" x2="14.9235" y1="427.7516" y2="473.1945" id="linearGradient1" spreadMethod="pad">
        <stop stop-opacity="1" stop-color="white" offset="0%"/>
        <stop stop-opacity="1" stop-color="white" offset="100%"/>
      </linearGradient>
      <linearGradient x1="242.0281" gradientUnits="userSpaceOnUse" x2="242.0281" y1="434.8354" y2="481.1945" id="linearGradient2" spreadMethod="pad">
        <stop stop-opacity="1" stop-color="white" offset="0%"/>
        <stop stop-opacity="1" stop-color="white" offset="100%"/>
      </linearGradient>
      <linearGradient x1="241" gradientUnits="userSpaceOnUse" x2="241" y1="230.6945" y2="281.1945" id="linearGradient3" spreadMethod="pad">
        <stop stop-opacity="1" stop-color="white" offset="0%"/>
        <stop stop-opacity="1" stop-color="white" offset="100%"/>
      </linearGradient>
      <linearGradient x1="-9" gradientUnits="userSpaceOnUse" x2="-9" y1="237.6945" y2="288.1945" id="linearGradient4" spreadMethod="pad">
        <stop stop-opacity="1" stop-color="white" offset="0%"/>
        <stop stop-opacity="1" stop-color="white" offset="100%"/>
      </linearGradient>
      <linearGradient x1="116.561" gradientUnits="userSpaceOnUse" x2="116.561" y1="631.794" y2="677.666" id="linearGradient5" spreadMethod="pad">
        <stop stop-opacity="1" stop-color="white" offset="0%"/>
        <stop stop-opacity="1" stop-color="white" offset="100%"/>
      </linearGradient>
      <linearGradient x1="224.2003" gradientUnits="userSpaceOnUse" x2="224.2003" y1="-7.334" y2="50.666" id="linearGradient6" spreadMethod="pad">
        <stop stop-opacity="1" stop-color="white" offset="0%"/>
        <stop stop-opacity="1" stop-color="white" offset="100%"/>
      </linearGradient>
      <linearGradient x1="68.2002" gradientUnits="userSpaceOnUse" x2="68.2002" y1="11.666" y2="69.666" id="linearGradient7" spreadMethod="pad">
        <stop stop-opacity="1" stop-color="white" offset="0%"/>
        <stop stop-opacity="1" stop-color="white" offset="100%"/>
      </linearGradient>
      <clipPath clipPathUnits="userSpaceOnUse" id="clipPath1">
        <path d="M0 0 L550 0 L550 809 L0 809 L0 0 Z"/>
      </clipPath>
      <clipPath clipPathUnits="userSpaceOnUse" id="clipPath2">
        <path d="M-47 -58 L503 -58 L503 751 L-47 751 L-47 -58 Z"/>
      </clipPath>
    </defs>
    <g fill="white" text-rendering="geometricPrecision" shape-rendering="geometricPrecision" transform="translate(47,58)" stroke="white">
      <rect x="-47" width="550" height="809" y="-58" clip-path="url(#clipPath2)" stroke="none"/>
    </g>
    <g fill="rgb(245,245,245)" text-rendering="geometricPrecision" shape-rendering="geometricPrecision" transform="matrix(1,0,0,1,47,58)" stroke="rgb(245,245,245)">
      <rect x="-32" y="187.0285" clip-path="url(#clipPath2)" width="519.4005" rx="4" ry="4" height="360.609" stroke="none"/>
      <rect x="-32" y="187.0285" clip-path="url(#clipPath2)" fill="rgb(235,235,235)" width="519.4005" height="21.666" stroke="none"/>
    </g>
    <g font-size="15px" stroke-linecap="butt" transform="matrix(1,0,0,1,47,58)" text-rendering="geometricPrecision" font-family="sans-serif" shape-rendering="geometricPrecision" stroke-miterlimit="1.45">
      <text x="382.4806" xml:space="preserve" y="203.5305" clip-path="url(#clipPath2)" stroke="none">Works Module</text>
      <rect x="-32" y="187.0285" clip-path="url(#clipPath2)" fill="none" width="519.4005" stroke-dasharray="6,2" rx="4" ry="4" height="360.609"/>
    </g>
    <g fill="white" text-rendering="geometricPrecision" shape-rendering="geometricPrecision" transform="matrix(1,0,0,1,47,58)" stroke="white">
      <path d="M14.9235 471.1945 L210.5051 471.1945 L210.5051 505.6375 Q210.5051 515.6375 200.5051 515.6375 L24.9235 515.6375 Q14.9235 515.6375 14.9235 505.6375 Z" stroke="none" clip-path="url(#clipPath2)"/>
      <path fill="url(#linearGradient1)" d="M14.9235 438.7516 Q14.9235 428.7516 24.9235 428.7516 L200.5051 428.7516 Q210.5051 428.7516 210.5051 438.7516 L210.5051 472.1945 L14.9235 472.1945 Z" clip-path="url(#clipPath2)" stroke="none"/>
      <path fill="none" d="M16.9235 438.7516 Q16.9235 430.7516 24.9235 430.7516 L200.5051 430.7516 Q208.5051 430.7516 208.5051 438.7516 L208.5051 505.6375 Q208.5051 513.6375 200.5051 513.6375 L24.9235 513.6375 Q16.9235 513.6375 16.9235 505.6375 Z" stroke-width="2" clip-path="url(#clipPath2)" stroke="rgb(217,217,217)"/>
      <path fill="none" d="M16.9235 438.7516 Q16.9235 430.7516 24.9235 430.7516 L200.5051 430.7516 Q208.5051 430.7516 208.5051 438.7516 L208.5051 505.6375 Q208.5051 513.6375 200.5051 513.6375 L24.9235 513.6375 Q16.9235 513.6375 16.9235 505.6375 Z" clip-path="url(#clipPath2)" stroke="black"/>
    </g>
    <g text-rendering="geometricPrecision" stroke-miterlimit="1.45" shape-rendering="geometricPrecision" font-family="sans-serif" transform="matrix(1,0,0,1,47,58)" stroke-linecap="butt">
      <text x="72.0209" xml:space="preserve" y="455.5305" clip-path="url(#clipPath2)" stroke="none">EXPRESSION A</text>
      <text x="80.7104" xml:space="preserve" y="469.6633" clip-path="url(#clipPath2)" stroke="none">instance of</text>
      <text x="52.978" xml:space="preserve" y="483.7961" clip-path="url(#clipPath2)" stroke="none">lrmoo:F2 Expression</text>
      <text x="46.0756" xml:space="preserve" y="497.9289" clip-path="url(#clipPath2)" stroke="none">(frbroo: F2 Expression)</text>
    </g>
    <g fill="white" text-rendering="geometricPrecision" shape-rendering="geometricPrecision" transform="matrix(1,0,0,1,47,58)" stroke="white">
      <path d="M242.0281 479.1945 L472.4005 479.1945 L472.4005 514.5537 Q472.4005 524.5537 462.4005 524.5537 L252.0281 524.5537 Q242.0281 524.5537 242.0281 514.5537 Z" stroke="none" clip-path="url(#clipPath2)"/>
      <path fill="url(#linearGradient2)" d="M242.0281 445.8354 Q242.0281 435.8354 252.0281 435.8354 L462.4005 435.8354 Q472.4005 435.8354 472.4005 445.8354 L472.4005 480.1945 L242.0281 480.1945 Z" clip-path="url(#clipPath2)" stroke="none"/>
      <path fill="none" d="M244.0281 445.8354 Q244.0281 437.8354 252.0281 437.8354 L462.4005 437.8354 Q470.4005 437.8354 470.4005 445.8354 L470.4005 514.5537 Q470.4005 522.5537 462.4005 522.5537 L252.0281 522.5537 Q244.0281 522.5537 244.0281 514.5537 Z" stroke-width="2" clip-path="url(#clipPath2)" stroke="rgb(217,217,217)"/>
      <path fill="none" d="M244.0281 445.8354 Q244.0281 437.8354 252.0281 437.8354 L462.4005 437.8354 Q470.4005 437.8354 470.4005 445.8354 L470.4005 514.5537 Q470.4005 522.5537 462.4005 522.5537 L252.0281 522.5537 Q244.0281 522.5537 244.0281 514.5537 Z" clip-path="url(#clipPath2)" stroke="black"/>
    </g>
    <g text-rendering="geometricPrecision" stroke-miterlimit="1.45" shape-rendering="geometricPrecision" font-family="sans-serif" transform="matrix(1,0,0,1,47,58)" stroke-linecap="butt">
      <text x="317.2094" xml:space="preserve" y="463.5305" clip-path="url(#clipPath2)" stroke="none">EXPRESSION B</text>
      <text x="325.2104" xml:space="preserve" y="477.6633" clip-path="url(#clipPath2)" stroke="none">instance of</text>
      <text x="297.478" xml:space="preserve" y="491.7961" clip-path="url(#clipPath2)" stroke="none">lrmoo:F2 Expression</text>
      <text x="290.5756" xml:space="preserve" y="505.9289" clip-path="url(#clipPath2)" stroke="none">(frbroo: F2 Expression)</text>
    </g>
    <g fill="white" text-rendering="geometricPrecision" shape-rendering="geometricPrecision" transform="matrix(1,0,0,1,47,58)" stroke="white">
      <path d="M241 279.1945 L464.4286 279.1945 L464.4286 318.6945 Q464.4286 328.6945 454.4286 328.6945 L251 328.6945 Q241 328.6945 241 318.6945 Z" stroke="none" clip-path="url(#clipPath2)"/>
      <path fill="url(#linearGradient3)" d="M241 241.6945 Q241 231.6945 251 231.6945 L454.4286 231.6945 Q464.4286 231.6945 464.4286 241.6945 L464.4286 280.1945 L241 280.1945 Z" clip-path="url(#clipPath2)" stroke="none"/>
      <path fill="none" d="M243 241.6945 Q243 233.6945 251 233.6945 L454.4286 233.6945 Q462.4286 233.6945 462.4286 241.6945 L462.4286 318.6945 Q462.4286 326.6945 454.4286 326.6945 L251 326.6945 Q243 326.6945 243 318.6945 Z" stroke-width="2" clip-path="url(#clipPath2)" stroke="rgb(217,217,217)"/>
      <path fill="none" d="M243 241.6945 Q243 233.6945 251 233.6945 L454.4286 233.6945 Q462.4286 233.6945 462.4286 241.6945 L462.4286 318.6945 Q462.4286 326.6945 454.4286 326.6945 L251 326.6945 Q243 326.6945 243 318.6945 Z" clip-path="url(#clipPath2)" stroke="black"/>
    </g>
    <g text-rendering="geometricPrecision" stroke-miterlimit="1.45" shape-rendering="geometricPrecision" font-family="sans-serif" transform="matrix(1,0,0,1,47,58)" stroke-linecap="butt">
      <text x="286.2075" xml:space="preserve" y="256.4641" clip-path="url(#clipPath2)" stroke="none">EXPRESSION CREATION</text>
      <text x="302.933" xml:space="preserve" y="270.5969" clip-path="url(#clipPath2)" stroke="none">OF EXPRESSION B</text>
      <text x="318.812" xml:space="preserve" y="284.7297" clip-path="url(#clipPath2)" stroke="none">instance of </text>
      <text x="262.6352" xml:space="preserve" y="298.8625" clip-path="url(#clipPath2)" stroke="none">lrmoo:F28 Expression Creation</text>
      <text x="257.6313" xml:space="preserve" y="312.9953" clip-path="url(#clipPath2)" stroke="none">(frbroo:F28 Expression Creation)</text>
    </g>
    <g fill="white" text-rendering="geometricPrecision" shape-rendering="geometricPrecision" transform="matrix(1,0,0,1,47,58)" stroke="white">
      <path d="M-9 286.1945 L214.4286 286.1945 L214.4286 325.6945 Q214.4286 335.6945 204.4286 335.6945 L1 335.6945 Q-9 335.6945 -9 325.6945 Z" stroke="none" clip-path="url(#clipPath2)"/>
      <path fill="url(#linearGradient4)" d="M-9 248.6945 Q-9 238.6945 1 238.6945 L204.4286 238.6945 Q214.4286 238.6945 214.4286 248.6945 L214.4286 287.1945 L-9 287.1945 Z" clip-path="url(#clipPath2)" stroke="none"/>
      <path fill="none" d="M-7 248.6945 Q-7 240.6945 1 240.6945 L204.4286 240.6945 Q212.4286 240.6945 212.4286 248.6945 L212.4286 325.6945 Q212.4286 333.6945 204.4286 333.6945 L1 333.6945 Q-7 333.6945 -7 325.6945 Z" stroke-width="2" clip-path="url(#clipPath2)" stroke="rgb(217,217,217)"/>
      <path fill="none" d="M-7 248.6945 Q-7 240.6945 1 240.6945 L204.4286 240.6945 Q212.4286 240.6945 212.4286 248.6945 L212.4286 325.6945 Q212.4286 333.6945 204.4286 333.6945 L1 333.6945 Q-7 333.6945 -7 325.6945 Z" clip-path="url(#clipPath2)" stroke="black"/>
    </g>
    <g text-rendering="geometricPrecision" stroke-miterlimit="1.45" shape-rendering="geometricPrecision" font-family="sans-serif" transform="matrix(1,0,0,1,47,58)" stroke-linecap="butt">
      <text x="36.2075" xml:space="preserve" y="263.4641" clip-path="url(#clipPath2)" stroke="none">EXPRESSION CREATION</text>
      <text x="52.2446" xml:space="preserve" y="277.5969" clip-path="url(#clipPath2)" stroke="none">OF EXPRESSION A</text>
      <text x="68.8119" xml:space="preserve" y="291.7297" clip-path="url(#clipPath2)" stroke="none">instance of </text>
      <text x="12.6352" xml:space="preserve" y="305.8625" clip-path="url(#clipPath2)" stroke="none">lrmoo:F28 Expression Creation</text>
      <text x="7.6313" xml:space="preserve" y="319.9953" clip-path="url(#clipPath2)" stroke="none">(frbroo:F28 Expression Creation)</text>
    </g>
    <g text-rendering="geometricPrecision" stroke-miterlimit="1.45" shape-rendering="geometricPrecision" transform="matrix(1,0,0,1,47,58)" stroke-linecap="butt">
      <path fill="none" d="M353.8052 328.6809 L356.0364 427.8448" clip-path="url(#clipPath2)"/>
      <path d="M356.2164 435.8428 L360.9452 423.7333 L356.0139 426.8451 L350.9477 423.9583 Z" clip-path="url(#clipPath2)" stroke="none"/>
      <text x="318.2204" xml:space="preserve" y="379.6422" clip-path="url(#clipPath2)" font-family="sans-serif" stroke="none">lrmoo:R17 created</text>
      <text x="313.2165" xml:space="preserve" y="393.775" clip-path="url(#clipPath2)" font-family="sans-serif" stroke="none">(frbroo:R17 created)</text>
      <path fill="none" d="M105.3339 335.6577 L109.9347 420.7718" clip-path="url(#clipPath2)"/>
      <path d="M110.3665 428.7601 L114.7115 416.5077 L109.8807 419.7732 L104.7261 417.0475 Z" clip-path="url(#clipPath2)" stroke="none"/>
      <text x="71.9827" xml:space="preserve" y="381.2727" clip-path="url(#clipPath2)" font-family="sans-serif" stroke="none">lrmoo:R17 created</text>
      <text x="66.9788" xml:space="preserve" y="395.4055" clip-path="url(#clipPath2)" font-family="sans-serif" stroke="none">(frbroo:R17 created)</text>
    </g>
    <g fill="rgb(245,245,245)" text-rendering="geometricPrecision" shape-rendering="geometricPrecision" transform="matrix(1,0,0,1,47,58)" stroke="rgb(245,245,245)">
      <rect x="93.561" y="596.128" clip-path="url(#clipPath2)" width="260.2785" rx="4" ry="4" height="139.41" stroke="none"/>
      <rect x="93.561" y="596.128" clip-path="url(#clipPath2)" fill="rgb(235,235,235)" width="260.2785" height="21.666" stroke="none"/>
    </g>
    <g font-size="15px" stroke-linecap="butt" transform="matrix(1,0,0,1,47,58)" text-rendering="geometricPrecision" font-family="sans-serif" shape-rendering="geometricPrecision" stroke-miterlimit="1.45">
      <text x="226.9396" xml:space="preserve" y="612.6299" clip-path="url(#clipPath2)" stroke="none">Relations Module</text>
      <rect x="93.561" y="596.128" clip-path="url(#clipPath2)" fill="none" width="260.2785" stroke-dasharray="6,2" rx="4" ry="4" height="139.41"/>
    </g>
    <g fill="white" text-rendering="geometricPrecision" shape-rendering="geometricPrecision" transform="matrix(1,0,0,1,47,58)" stroke="white">
      <path d="M116.561 675.666 L338.8395 675.666 L338.8395 710.538 Q338.8395 720.538 328.8395 720.538 L126.561 720.538 Q116.561 720.538 116.561 710.538 Z" stroke="none" clip-path="url(#clipPath2)"/>
      <path fill="url(#linearGradient5)" d="M116.561 642.794 Q116.561 632.794 126.561 632.794 L328.8395 632.794 Q338.8395 632.794 338.8395 642.794 L338.8395 676.666 L116.561 676.666 Z" clip-path="url(#clipPath2)" stroke="none"/>
      <path fill="none" d="M118.561 642.794 Q118.561 634.794 126.561 634.794 L328.8395 634.794 Q336.8395 634.794 336.8395 642.794 L336.8395 710.538 Q336.8395 718.538 328.8395 718.538 L126.561 718.538 Q118.561 718.538 118.561 710.538 Z" stroke-width="2" clip-path="url(#clipPath2)" stroke="rgb(217,217,217)"/>
      <path fill="none" d="M118.561 642.794 Q118.561 634.794 126.561 634.794 L328.8395 634.794 Q336.8395 634.794 336.8395 642.794 L336.8395 710.538 Q336.8395 718.538 328.8395 718.538 L126.561 718.538 Q118.561 718.538 118.561 710.538 Z" clip-path="url(#clipPath2)" stroke="black"/>
    </g>
    <g text-rendering="geometricPrecision" stroke-miterlimit="1.45" shape-rendering="geometricPrecision" font-family="sans-serif" transform="matrix(1,0,0,1,47,58)" stroke-linecap="butt">
      <text x="153.7081" xml:space="preserve" y="667.0684" clip-path="url(#clipPath2)" stroke="none">INTERTEXTUAL RELATION</text>
      <text x="195.6964" xml:space="preserve" y="681.2012" clip-path="url(#clipPath2)" stroke="none">instance of</text>
      <text x="133.2706" xml:space="preserve" y="695.334" clip-path="url(#clipPath2)" stroke="none">intro:INT31 Intertextual Relation</text>
    </g>
    <g text-rendering="geometricPrecision" stroke-miterlimit="1.45" shape-rendering="geometricPrecision" transform="matrix(1,0,0,1,47,58)" stroke-linecap="butt">
      <path fill="none" d="M256.6164 632.8005 L323.5603 531.2473" clip-path="url(#clipPath2)"/>
      <path d="M327.9633 524.568 L317.1842 531.8351 L323.0099 532.0822 L325.5333 537.3389 Z" clip-path="url(#clipPath2)" stroke="none"/>
      <text x="244.2051" xml:space="preserve" y="570.5352" clip-path="url(#clipPath2)" font-family="sans-serif" stroke="none">intro:R24 has Related Entity</text>
      <path fill="none" d="M203.0383 632.8115 L141.0469 522.5765" clip-path="url(#clipPath2)"/>
      <path d="M137.1256 515.6035 L138.6495 528.5139 L141.5371 523.4481 L147.3658 523.6122 Z" clip-path="url(#clipPath2)" stroke="none"/>
      <text x="39.2051" xml:space="preserve" y="571.5352" clip-path="url(#clipPath2)" font-family="sans-serif" stroke="none">intro:R24 has Related Entity</text>
    </g>
    <g fill="rgb(245,245,245)" text-rendering="geometricPrecision" shape-rendering="geometricPrecision" transform="matrix(1,0,0,1,47,58)" stroke="rgb(245,245,245)">
      <rect x="45.2003" y="-43" clip-path="url(#clipPath2)" width="339" rx="4" ry="4" height="182.666" stroke="none"/>
      <rect x="45.2003" y="-43" clip-path="url(#clipPath2)" fill="rgb(235,235,235)" width="339" height="21.666" stroke="none"/>
    </g>
    <g font-size="15px" stroke-linecap="butt" transform="matrix(1,0,0,1,47,58)" text-rendering="geometricPrecision" font-family="sans-serif" shape-rendering="geometricPrecision" stroke-miterlimit="1.45">
      <text x="266.3018" xml:space="preserve" y="-26.498" clip-path="url(#clipPath2)" stroke="none">Authors Module</text>
      <rect x="45.2003" y="-43" clip-path="url(#clipPath2)" fill="none" width="339" stroke-dasharray="6,2" rx="4" ry="4" height="182.666"/>
    </g>
    <g fill="white" text-rendering="geometricPrecision" shape-rendering="geometricPrecision" transform="matrix(1,0,0,1,47,58)" stroke="white">
      <path d="M224.2003 48.666 L369.2003 48.666 L369.2003 95.666 Q369.2003 105.666 359.2003 105.666 L234.2003 105.666 Q224.2003 105.666 224.2003 95.666 Z" stroke="none" clip-path="url(#clipPath2)"/>
      <path fill="url(#linearGradient6)" d="M224.2003 3.666 Q224.2003 -6.334 234.2003 -6.334 L359.2003 -6.334 Q369.2003 -6.334 369.2003 3.666 L369.2003 49.666 L224.2003 49.666 Z" clip-path="url(#clipPath2)" stroke="none"/>
      <path fill="none" d="M226.2003 3.666 Q226.2003 -4.334 234.2003 -4.334 L359.2003 -4.334 Q367.2003 -4.334 367.2003 3.666 L367.2003 95.666 Q367.2003 103.666 359.2003 103.666 L234.2003 103.666 Q226.2003 103.666 226.2003 95.666 Z" stroke-width="2" clip-path="url(#clipPath2)" stroke="rgb(217,217,217)"/>
      <path fill="none" d="M226.2003 3.666 Q226.2003 -4.334 234.2003 -4.334 L359.2003 -4.334 Q367.2003 -4.334 367.2003 3.666 L367.2003 95.666 Q367.2003 103.666 359.2003 103.666 L234.2003 103.666 Q226.2003 103.666 226.2003 95.666 Z" clip-path="url(#clipPath2)" stroke="black"/>
    </g>
    <g text-rendering="geometricPrecision" stroke-miterlimit="1.45" shape-rendering="geometricPrecision" font-family="sans-serif" transform="matrix(1,0,0,1,47,58)" stroke-linecap="butt">
      <text x="261.9688" xml:space="preserve" y="33.002" clip-path="url(#clipPath2)" stroke="none">AUTHOR OF</text>
      <text x="256.6954" xml:space="preserve" y="47.1348" clip-path="url(#clipPath2)" stroke="none">EXPRESSION B</text>
      <text x="262.7979" xml:space="preserve" y="61.2676" clip-path="url(#clipPath2)" stroke="none">instance of </text>
      <text x="244.8624" xml:space="preserve" y="75.4004" clip-path="url(#clipPath2)" stroke="none">e/crm:E21 Person</text>
    </g>
    <g fill="white" text-rendering="geometricPrecision" shape-rendering="geometricPrecision" transform="matrix(1,0,0,1,47,58)" stroke="white">
      <path d="M68.2002 67.666 L213.2003 67.666 L213.2003 114.666 Q213.2003 124.666 203.2003 124.666 L78.2002 124.666 Q68.2002 124.666 68.2002 114.666 Z" stroke="none" clip-path="url(#clipPath2)"/>
      <path fill="url(#linearGradient7)" d="M68.2002 22.666 Q68.2002 12.666 78.2002 12.666 L203.2003 12.666 Q213.2003 12.666 213.2003 22.666 L213.2003 68.666 L68.2002 68.666 Z" clip-path="url(#clipPath2)" stroke="none"/>
      <path fill="none" d="M70.2002 22.666 Q70.2002 14.666 78.2002 14.666 L203.2003 14.666 Q211.2003 14.666 211.2003 22.666 L211.2003 114.666 Q211.2003 122.666 203.2003 122.666 L78.2002 122.666 Q70.2002 122.666 70.2002 114.666 Z" stroke-width="2" clip-path="url(#clipPath2)" stroke="rgb(217,217,217)"/>
      <path fill="none" d="M70.2002 22.666 Q70.2002 14.666 78.2002 14.666 L203.2003 14.666 Q211.2003 14.666 211.2003 22.666 L211.2003 114.666 Q211.2003 122.666 203.2003 122.666 L78.2002 122.666 Q70.2002 122.666 70.2002 114.666 Z" clip-path="url(#clipPath2)" stroke="black"/>
    </g>
    <g text-rendering="geometricPrecision" stroke-miterlimit="1.45" shape-rendering="geometricPrecision" font-family="sans-serif" transform="matrix(1,0,0,1,47,58)" stroke-linecap="butt">
      <text x="105.9688" xml:space="preserve" y="52.002" clip-path="url(#clipPath2)" stroke="none">AUTHOR OF</text>
      <text x="100.0069" xml:space="preserve" y="66.1348" clip-path="url(#clipPath2)" stroke="none">EXPRESSION A</text>
      <text x="106.7979" xml:space="preserve" y="80.2676" clip-path="url(#clipPath2)" stroke="none">instance of </text>
      <text x="88.8624" xml:space="preserve" y="94.4004" clip-path="url(#clipPath2)" stroke="none">e/crm:E21 Person</text>
    </g>
    <g text-rendering="geometricPrecision" stroke-miterlimit="1.45" shape-rendering="geometricPrecision" transform="matrix(1,0,0,1,47,58)" stroke-linecap="butt">
      <path fill="none" d="M340.933 231.7081 L312.2067 113.4836" clip-path="url(#clipPath2)"/>
      <path d="M310.3178 105.7097 L308.2925 118.551 L312.4428 114.4553 L318.0098 116.1899 Z" clip-path="url(#clipPath2)" stroke="none"/>
      <text x="264.1422" xml:space="preserve" y="176.5389" clip-path="url(#clipPath2)" font-family="sans-serif" stroke="none">e/crm:P14 carried out by</text>
      <path fill="none" d="M111.1489 238.6712 L129.5976 132.5383" clip-path="url(#clipPath2)"/>
      <path d="M130.9677 124.6565 L123.9864 135.6229 L129.4263 133.5235 L133.8387 137.3355 Z" clip-path="url(#clipPath2)" stroke="none"/>
      <text x="18.7119" xml:space="preserve" y="158.5064" clip-path="url(#clipPath2)" font-family="sans-serif" stroke="none">e/crm:P14 carried out by</text>
    </g>
  </g>
</svg>
