<?xml version="1.0" encoding="UTF-8"?><svg xmlns="http://www.w3.org/2000/svg" xmlns:xlink="http://www.w3.org/1999/xlink" fill-opacity="1" color-rendering="auto" color-interpolation="auto" text-rendering="auto" stroke="black" stroke-linecap="square" width="2228" stroke-miterlimit="10" shape-rendering="auto" stroke-opacity="1" fill="black" stroke-dasharray="none" font-weight="normal" stroke-width="1" height="1339" font-family="'Dialog'" font-style="normal" stroke-linejoin="miter" font-size="12px" stroke-dashoffset="0" image-rendering="auto">
  <!--Generated by ySVG 2.6-->
  <defs id="genericDefs"/>
  <g>
    <defs id="defs1">
      <linearGradient x1="829.8369" gradientUnits="userSpaceOnUse" x2="829.8369" y1="282.1908" y2="315.1908" id="linearGradient1" spreadMethod="pad">
        <stop stop-opacity="1" stop-color="white" offset="0%"/>
        <stop stop-opacity="1" stop-color="white" offset="100%"/>
      </linearGradient>
      <linearGradient x1="437.5887" gradientUnits="userSpaceOnUse" x2="437.5887" y1="416.4459" y2="464.9339" id="linearGradient2" spreadMethod="pad">
        <stop stop-opacity="1" stop-color="white" offset="0%"/>
        <stop stop-opacity="1" stop-color="white" offset="100%"/>
      </linearGradient>
      <linearGradient x1="1257.6671" gradientUnits="userSpaceOnUse" x2="1257.6671" y1="167.0836" y2="206.1372" id="linearGradient3" spreadMethod="pad">
        <stop stop-opacity="1" stop-color="white" offset="0%"/>
        <stop stop-opacity="1" stop-color="white" offset="100%"/>
      </linearGradient>
      <linearGradient x1="1531.6675" gradientUnits="userSpaceOnUse" x2="1531.6675" y1="159.0597" y2="206.1372" id="linearGradient4" spreadMethod="pad">
        <stop stop-opacity="1" stop-color="white" offset="0%"/>
        <stop stop-opacity="1" stop-color="white" offset="100%"/>
      </linearGradient>
      <linearGradient x1="1376.8384" gradientUnits="userSpaceOnUse" x2="1376.8384" y1="-1" y2="60.5298" id="linearGradient5" spreadMethod="pad">
        <stop stop-opacity="1" stop-color="white" offset="0%"/>
        <stop stop-opacity="1" stop-color="white" offset="100%"/>
      </linearGradient>
      <linearGradient x1="817.3369" gradientUnits="userSpaceOnUse" x2="817.3369" y1="826.8325" y2="866.6968" id="linearGradient6" spreadMethod="pad">
        <stop stop-opacity="1" stop-color="white" offset="0%"/>
        <stop stop-opacity="1" stop-color="white" offset="100%"/>
      </linearGradient>
      <linearGradient x1="536.6317" gradientUnits="userSpaceOnUse" x2="536.6317" y1="818.8085" y2="866.6968" id="linearGradient7" spreadMethod="pad">
        <stop stop-opacity="1" stop-color="white" offset="0%"/>
        <stop stop-opacity="1" stop-color="white" offset="100%"/>
      </linearGradient>
      <linearGradient x1="587.4504" gradientUnits="userSpaceOnUse" x2="587.4504" y1="658.615" y2="714.8848" id="linearGradient8" spreadMethod="pad">
        <stop stop-opacity="1" stop-color="white" offset="0%"/>
        <stop stop-opacity="1" stop-color="white" offset="100%"/>
      </linearGradient>
      <linearGradient x1="1968.5724" gradientUnits="userSpaceOnUse" x2="1968.5724" y1="669.4419" y2="714.8848" id="linearGradient9" spreadMethod="pad">
        <stop stop-opacity="1" stop-color="white" offset="0%"/>
        <stop stop-opacity="1" stop-color="white" offset="100%"/>
      </linearGradient>
      <linearGradient x1="1172.6519" gradientUnits="userSpaceOnUse" x2="1172.6519" y1="668.5257" y2="714.8848" id="linearGradient10" spreadMethod="pad">
        <stop stop-opacity="1" stop-color="white" offset="0%"/>
        <stop stop-opacity="1" stop-color="white" offset="100%"/>
      </linearGradient>
      <linearGradient x1="1267.6338" gradientUnits="userSpaceOnUse" x2="1267.6338" y1="419.0619" y2="464.9339" id="linearGradient11" spreadMethod="pad">
        <stop stop-opacity="1" stop-color="white" offset="0%"/>
        <stop stop-opacity="1" stop-color="white" offset="100%"/>
      </linearGradient>
      <linearGradient x1="1550.9127" gradientUnits="userSpaceOnUse" x2="1550.9127" y1="424.3422" y2="464.9339" id="linearGradient12" spreadMethod="pad">
        <stop stop-opacity="1" stop-color="white" offset="0%"/>
        <stop stop-opacity="1" stop-color="white" offset="100%"/>
      </linearGradient>
      <linearGradient x1="1474.834" gradientUnits="userSpaceOnUse" x2="1474.834" y1="269.3196" y2="315.1908" id="linearGradient13" spreadMethod="pad">
        <stop stop-opacity="1" stop-color="white" offset="0%"/>
        <stop stop-opacity="1" stop-color="white" offset="100%"/>
      </linearGradient>
      <linearGradient x1="1359.9896" gradientUnits="userSpaceOnUse" x2="1359.9896" y1="1214.2502" y2="1262.7383" id="linearGradient14" spreadMethod="pad">
        <stop stop-opacity="1" stop-color="white" offset="0%"/>
        <stop stop-opacity="1" stop-color="white" offset="100%"/>
      </linearGradient>
      <linearGradient x1="1327.8361" gradientUnits="userSpaceOnUse" x2="1327.8361" y1="823.5896" y2="866.6968" id="linearGradient15" spreadMethod="pad">
        <stop stop-opacity="1" stop-color="white" offset="0%"/>
        <stop stop-opacity="1" stop-color="white" offset="100%"/>
      </linearGradient>
      <linearGradient x1="1598.5936" gradientUnits="userSpaceOnUse" x2="1598.5936" y1="819.6193" y2="866.6968" id="linearGradient16" spreadMethod="pad">
        <stop stop-opacity="1" stop-color="white" offset="0%"/>
        <stop stop-opacity="1" stop-color="white" offset="100%"/>
      </linearGradient>
      <linearGradient x1="1521.1222" gradientUnits="userSpaceOnUse" x2="1521.1222" y1="663.4084" y2="714.8848" id="linearGradient17" spreadMethod="pad">
        <stop stop-opacity="1" stop-color="white" offset="0%"/>
        <stop stop-opacity="1" stop-color="white" offset="100%"/>
      </linearGradient>
      <linearGradient x1="2131.3916" gradientUnits="userSpaceOnUse" x2="2131.3916" y1="831.6968" y2="866.6968" id="linearGradient18" spreadMethod="pad">
        <stop stop-opacity="1" stop-color="white" offset="0%"/>
        <stop stop-opacity="1" stop-color="white" offset="100%"/>
      </linearGradient>
      <linearGradient x1="2405.3921" gradientUnits="userSpaceOnUse" x2="2405.3921" y1="817.9979" y2="866.6968" id="linearGradient19" spreadMethod="pad">
        <stop stop-opacity="1" stop-color="white" offset="0%"/>
        <stop stop-opacity="1" stop-color="white" offset="100%"/>
      </linearGradient>
      <linearGradient x1="2329.5706" gradientUnits="userSpaceOnUse" x2="2329.5706" y1="659.119" y2="714.8848" id="linearGradient20" spreadMethod="pad">
        <stop stop-opacity="1" stop-color="white" offset="0%"/>
        <stop stop-opacity="1" stop-color="white" offset="100%"/>
      </linearGradient>
      <linearGradient x1="1352.9828" gradientUnits="userSpaceOnUse" x2="1352.9828" y1="1080.2743" y2="1128.7622" id="linearGradient21" spreadMethod="pad">
        <stop stop-opacity="1" stop-color="white" offset="0%"/>
        <stop stop-opacity="1" stop-color="white" offset="100%"/>
      </linearGradient>
      <linearGradient x1="1344.5254" gradientUnits="userSpaceOnUse" x2="1344.5254" y1="990.2743" y2="1027.2743" id="linearGradient22" spreadMethod="pad">
        <stop stop-opacity="1" stop-color="white" offset="0%"/>
        <stop stop-opacity="1" stop-color="white" offset="100%"/>
      </linearGradient>
      <linearGradient x1="1548.5254" gradientUnits="userSpaceOnUse" x2="1548.5254" y1="992.7743" y2="1027.2743" id="linearGradient23" spreadMethod="pad">
        <stop stop-opacity="1" stop-color="white" offset="0%"/>
        <stop stop-opacity="1" stop-color="white" offset="100%"/>
      </linearGradient>
      <linearGradient x1="1890.299" gradientUnits="userSpaceOnUse" x2="1890.299" y1="825.3688" y2="866.6968" id="linearGradient24" spreadMethod="pad">
        <stop stop-opacity="1" stop-color="white" offset="0%"/>
        <stop stop-opacity="1" stop-color="white" offset="100%"/>
      </linearGradient>
      <linearGradient x1="1585.4828" gradientUnits="userSpaceOnUse" x2="1585.4828" y1="1080.2743" y2="1128.7622" id="linearGradient25" spreadMethod="pad">
        <stop stop-opacity="1" stop-color="white" offset="0%"/>
        <stop stop-opacity="1" stop-color="white" offset="100%"/>
      </linearGradient>
      <linearGradient x1="1091.3369" gradientUnits="userSpaceOnUse" x2="1091.3369" y1="819.244" y2="866.6968" id="linearGradient26" spreadMethod="pad">
        <stop stop-opacity="1" stop-color="white" offset="0%"/>
        <stop stop-opacity="1" stop-color="white" offset="100%"/>
      </linearGradient>
      <clipPath clipPathUnits="userSpaceOnUse" id="clipPath1">
        <path d="M0 0 L2228 0 L2228 1339 L0 1339 L0 0 Z"/>
      </clipPath>
      <clipPath clipPathUnits="userSpaceOnUse" id="clipPath2">
        <path d="M422 -15 L2650 -15 L2650 1324 L422 1324 L422 -15 Z"/>
      </clipPath>
    </defs>
    <g fill="white" text-rendering="geometricPrecision" shape-rendering="geometricPrecision" transform="translate(-422,15)" stroke="white">
      <rect x="422" width="2228" height="1339" y="-15" clip-path="url(#clipPath2)" stroke="none"/>
    </g>
    <g fill="white" text-rendering="geometricPrecision" shape-rendering="geometricPrecision" transform="matrix(1,0,0,1,-422,15)" stroke="white">
      <path d="M829.8369 313.1908 L972.8369 313.1908 L972.8369 335.1908 Q972.8369 345.1908 962.8369 345.1908 L839.8369 345.1908 Q829.8369 345.1908 829.8369 335.1908 Z" stroke="none" clip-path="url(#clipPath2)"/>
      <path fill="url(#linearGradient1)" d="M829.8369 293.1908 Q829.8369 283.1908 839.8369 283.1908 L962.8369 283.1908 Q972.8369 283.1908 972.8369 293.1908 L972.8369 314.1908 L829.8369 314.1908 Z" clip-path="url(#clipPath2)" stroke="none"/>
      <path fill="none" d="M831.8369 293.1908 Q831.8369 285.1908 839.8369 285.1908 L962.8369 285.1908 Q970.8369 285.1908 970.8369 293.1908 L970.8369 335.1908 Q970.8369 343.1908 962.8369 343.1908 L839.8369 343.1908 Q831.8369 343.1908 831.8369 335.1908 Z" stroke-width="2" clip-path="url(#clipPath2)" stroke="rgb(217,217,217)"/>
      <path fill="none" d="M831.8369 293.1908 Q831.8369 285.1908 839.8369 285.1908 L962.8369 285.1908 Q970.8369 285.1908 970.8369 293.1908 L970.8369 335.1908 Q970.8369 343.1908 962.8369 343.1908 L839.8369 343.1908 Q831.8369 343.1908 831.8369 335.1908 Z" clip-path="url(#clipPath2)" stroke="black"/>
    </g>
    <g text-rendering="geometricPrecision" stroke-miterlimit="1.45" shape-rendering="geometricPrecision" font-family="sans-serif" transform="matrix(1,0,0,1,-422,15)" stroke-linecap="butt">
      <text x="855.2646" xml:space="preserve" y="304.5931" clip-path="url(#clipPath2)" stroke="none">MOTIF FEATURE</text>
      <text x="869.333" xml:space="preserve" y="318.7259" clip-path="url(#clipPath2)" stroke="none">instance of</text>
      <text x="858.7041" xml:space="preserve" y="332.8587" clip-path="url(#clipPath2)" stroke="none">intro:INT Motif</text>
    </g>
    <g fill="white" text-rendering="geometricPrecision" shape-rendering="geometricPrecision" transform="matrix(1,0,0,1,-422,15)" stroke="white">
      <path d="M437.5887 462.9339 L574.674 462.9339 L574.674 500.4219 Q574.674 510.4219 564.674 510.4219 L447.5887 510.4219 Q437.5887 510.4219 437.5887 500.4219 Z" stroke="none" clip-path="url(#clipPath2)"/>
      <path fill="url(#linearGradient2)" d="M437.5887 427.4459 Q437.5887 417.4459 447.5887 417.4459 L564.674 417.4459 Q574.674 417.4459 574.674 427.4459 L574.674 463.9339 L437.5887 463.9339 Z" clip-path="url(#clipPath2)" stroke="none"/>
      <path fill="none" d="M439.5887 427.4459 Q439.5887 419.4459 447.5887 419.4459 L564.674 419.4459 Q572.674 419.4459 572.674 427.4459 L572.674 500.4219 Q572.674 508.4219 564.674 508.4219 L447.5887 508.4219 Q439.5887 508.4219 439.5887 500.4219 Z" stroke-width="2" clip-path="url(#clipPath2)" stroke="rgb(217,217,217)"/>
      <path fill="none" d="M439.5887 427.4459 Q439.5887 419.4459 447.5887 419.4459 L564.674 419.4459 Q572.674 419.4459 572.674 427.4459 L572.674 500.4219 Q572.674 508.4219 564.674 508.4219 L447.5887 508.4219 Q439.5887 508.4219 439.5887 500.4219 Z" clip-path="url(#clipPath2)" stroke="black"/>
    </g>
    <g text-rendering="geometricPrecision" stroke-miterlimit="1.45" shape-rendering="geometricPrecision" font-family="sans-serif" transform="matrix(1,0,0,1,-422,15)" stroke-linecap="butt">
      <text x="468.936" xml:space="preserve" y="454.3363" clip-path="url(#clipPath2)" stroke="none">WIKIDATA ID</text>
      <text x="474.1274" xml:space="preserve" y="468.4691" clip-path="url(#clipPath2)" stroke="none">instance of</text>
      <text x="447.5874" xml:space="preserve" y="482.6019" clip-path="url(#clipPath2)" stroke="none">e/crm:E42 Identifier</text>
    </g>
    <g fill="white" text-rendering="geometricPrecision" shape-rendering="geometricPrecision" transform="matrix(1,0,0,1,-422,15)" stroke="white">
      <path d="M1257.6671 204.1372 L1481.6671 204.1372 L1481.6671 232.1908 Q1481.6671 242.1908 1471.6671 242.1908 L1267.6671 242.1908 Q1257.6671 242.1908 1257.6671 232.1908 Z" stroke="none" clip-path="url(#clipPath2)"/>
      <path fill="url(#linearGradient3)" d="M1257.6671 178.0836 Q1257.6671 168.0836 1267.6671 168.0836 L1471.6671 168.0836 Q1481.6671 168.0836 1481.6671 178.0836 L1481.6671 205.1372 L1257.6671 205.1372 Z" clip-path="url(#clipPath2)" stroke="none"/>
      <path fill="none" d="M1259.6671 178.0836 Q1259.6671 170.0836 1267.6671 170.0836 L1471.6671 170.0836 Q1479.6671 170.0836 1479.6671 178.0836 L1479.6671 232.1908 Q1479.6671 240.1908 1471.6671 240.1908 L1267.6671 240.1908 Q1259.6671 240.1908 1259.6671 232.1908 Z" stroke-width="2" clip-path="url(#clipPath2)" stroke="rgb(217,217,217)"/>
      <path fill="none" d="M1259.6671 178.0836 Q1259.6671 170.0836 1267.6671 170.0836 L1471.6671 170.0836 Q1479.6671 170.0836 1479.6671 178.0836 L1479.6671 232.1908 Q1479.6671 240.1908 1471.6671 240.1908 L1267.6671 240.1908 Q1259.6671 240.1908 1259.6671 232.1908 Z" clip-path="url(#clipPath2)" stroke="black"/>
    </g>
    <g text-rendering="geometricPrecision" stroke-miterlimit="1.45" shape-rendering="geometricPrecision" font-family="sans-serif" transform="matrix(1,0,0,1,-422,15)" stroke-linecap="butt">
      <text x="1301.5079" xml:space="preserve" y="188.4731" clip-path="url(#clipPath2)" stroke="none">MOTIF ACTUALIZATION</text>
      <text x="1320.9142" xml:space="preserve" y="202.6059" clip-path="url(#clipPath2)" stroke="none">IN EXPRESSION A</text>
      <text x="1337.6632" xml:space="preserve" y="216.7387" clip-path="url(#clipPath2)" stroke="none">instance of</text>
      <text x="1267.8722" xml:space="preserve" y="230.8715" clip-path="url(#clipPath2)" stroke="none">intro:INT2 Actualization Of Feature</text>
    </g>
    <g fill="white" text-rendering="geometricPrecision" shape-rendering="geometricPrecision" transform="matrix(1,0,0,1,-422,15)" stroke="white">
      <path d="M1531.6675 204.1372 L1762.3723 204.1372 L1762.3723 240.2147 Q1762.3723 250.2147 1752.3723 250.2147 L1541.6675 250.2147 Q1531.6675 250.2147 1531.6675 240.2147 Z" stroke="none" clip-path="url(#clipPath2)"/>
      <path fill="url(#linearGradient4)" d="M1531.6675 170.0597 Q1531.6675 160.0597 1541.6675 160.0597 L1752.3723 160.0597 Q1762.3723 160.0597 1762.3723 170.0597 L1762.3723 205.1371 L1531.6675 205.1371 Z" clip-path="url(#clipPath2)" stroke="none"/>
      <path fill="none" d="M1533.6675 170.0597 Q1533.6675 162.0597 1541.6675 162.0597 L1752.3723 162.0597 Q1760.3723 162.0597 1760.3723 170.0597 L1760.3723 240.2146 Q1760.3723 248.2146 1752.3723 248.2146 L1541.6675 248.2146 Q1533.6675 248.2146 1533.6675 240.2146 Z" stroke-width="2" clip-path="url(#clipPath2)" stroke="rgb(217,217,217)"/>
      <path fill="none" d="M1533.6675 170.0597 Q1533.6675 162.0597 1541.6675 162.0597 L1752.3723 162.0597 Q1760.3723 162.0597 1760.3723 170.0597 L1760.3723 240.2146 Q1760.3723 248.2146 1752.3723 248.2146 L1541.6675 248.2146 Q1533.6675 248.2146 1533.6675 240.2146 Z" clip-path="url(#clipPath2)" stroke="black"/>
    </g>
    <g text-rendering="geometricPrecision" stroke-miterlimit="1.45" shape-rendering="geometricPrecision" font-family="sans-serif" transform="matrix(1,0,0,1,-422,15)" stroke-linecap="butt">
      <text x="1585.432" xml:space="preserve" y="181.4067" clip-path="url(#clipPath2)" stroke="none">INTERPRETATION OF </text>
      <text x="1578.8607" xml:space="preserve" y="195.5395" clip-path="url(#clipPath2)" stroke="none">MOTIF ACTUALIZATION</text>
      <text x="1598.267" xml:space="preserve" y="209.6723" clip-path="url(#clipPath2)" stroke="none">IN EXPRESSION A</text>
      <text x="1615.016" xml:space="preserve" y="223.8051" clip-path="url(#clipPath2)" stroke="none">instance of</text>
      <text x="1579.4115" xml:space="preserve" y="237.9379" clip-path="url(#clipPath2)" stroke="none">intro:INT Interpretation</text>
    </g>
    <g fill="white" text-rendering="geometricPrecision" shape-rendering="geometricPrecision" transform="matrix(1,0,0,1,-422,15)" stroke="white">
      <path d="M1376.8384 58.5298 L1639.8484 58.5298 L1639.8484 109.0597 Q1639.8484 119.0597 1629.8484 119.0597 L1386.8384 119.0597 Q1376.8384 119.0597 1376.8384 109.0597 Z" stroke="none" clip-path="url(#clipPath2)"/>
      <path fill="url(#linearGradient5)" d="M1376.8384 10 Q1376.8384 0 1386.8384 0 L1629.8484 0 Q1639.8484 0 1639.8484 10 L1639.8484 59.5298 L1376.8384 59.5298 Z" clip-path="url(#clipPath2)" stroke="none"/>
      <path fill="none" d="M1378.8384 10 Q1378.8384 2 1386.8384 2 L1629.8484 2 Q1637.8484 2 1637.8484 10 L1637.8484 109.0597 Q1637.8484 117.0597 1629.8484 117.0597 L1386.8384 117.0597 Q1378.8384 117.0597 1378.8384 109.0597 Z" stroke-width="2" clip-path="url(#clipPath2)" stroke="rgb(217,217,217)"/>
      <path fill="none" d="M1378.8384 10 Q1378.8384 2 1386.8384 2 L1629.8484 2 Q1637.8484 2 1637.8484 10 L1637.8484 109.0597 Q1637.8484 117.0597 1629.8484 117.0597 L1386.8384 117.0597 Q1378.8384 117.0597 1378.8384 109.0597 Z" clip-path="url(#clipPath2)" stroke="black"/>
    </g>
    <g text-rendering="geometricPrecision" stroke-miterlimit="1.45" shape-rendering="geometricPrecision" font-family="sans-serif" transform="matrix(1,0,0,1,-422,15)" stroke-linecap="butt">
      <text x="1387.3884" xml:space="preserve" y="35.7994" clip-path="url(#clipPath2)" stroke="none">ACTUALIZATION OF INTERPRETATION OF </text>
      <text x="1440.1843" xml:space="preserve" y="49.9322" clip-path="url(#clipPath2)" stroke="none">MOTIF ACTUALIZATION</text>
      <text x="1459.5906" xml:space="preserve" y="64.065" clip-path="url(#clipPath2)" stroke="none">IN EXPRESSION A</text>
      <text x="1476.3396" xml:space="preserve" y="78.1978" clip-path="url(#clipPath2)" stroke="none">instance of</text>
      <text x="1407.5242" xml:space="preserve" y="92.3306" clip-path="url(#clipPath2)" stroke="none">intro:INT2 Actualization of Feature</text>
    </g>
    <g fill="white" text-rendering="geometricPrecision" shape-rendering="geometricPrecision" transform="matrix(1,0,0,1,-422,15)" stroke="white">
      <path d="M817.3369 864.6968 L1041.3369 864.6968 L1041.3369 893.5611 Q1041.3369 903.5611 1031.3369 903.5611 L827.3369 903.5611 Q817.3369 903.5611 817.3369 893.5611 Z" stroke="none" clip-path="url(#clipPath2)"/>
      <path fill="url(#linearGradient6)" d="M817.3369 837.8325 Q817.3369 827.8325 827.3369 827.8325 L1031.3369 827.8325 Q1041.3369 827.8325 1041.3369 837.8325 L1041.3369 865.6968 L817.3369 865.6968 Z" clip-path="url(#clipPath2)" stroke="none"/>
      <path fill="none" d="M819.3369 837.8325 Q819.3369 829.8325 827.3369 829.8325 L1031.3369 829.8325 Q1039.3369 829.8325 1039.3369 837.8325 L1039.3369 893.5611 Q1039.3369 901.5611 1031.3369 901.5611 L827.3369 901.5611 Q819.3369 901.5611 819.3369 893.5611 Z" stroke-width="2" clip-path="url(#clipPath2)" stroke="rgb(217,217,217)"/>
      <path fill="none" d="M819.3369 837.8325 Q819.3369 829.8325 827.3369 829.8325 L1031.3369 829.8325 Q1039.3369 829.8325 1039.3369 837.8325 L1039.3369 893.5611 Q1039.3369 901.5611 1031.3369 901.5611 L827.3369 901.5611 Q819.3369 901.5611 819.3369 893.5611 Z" clip-path="url(#clipPath2)" stroke="black"/>
    </g>
    <g text-rendering="geometricPrecision" stroke-miterlimit="1.45" shape-rendering="geometricPrecision" font-family="sans-serif" transform="matrix(1,0,0,1,-422,15)" stroke-linecap="butt">
      <text x="859.2793" xml:space="preserve" y="849.0327" clip-path="url(#clipPath2)" stroke="none">MOTIF ACTUALIZATION </text>
      <text x="881.2725" xml:space="preserve" y="863.1655" clip-path="url(#clipPath2)" stroke="none">IN EXPRESSION B</text>
      <text x="897.333" xml:space="preserve" y="877.2983" clip-path="url(#clipPath2)" stroke="none">instance of</text>
      <text x="827.542" xml:space="preserve" y="891.4312" clip-path="url(#clipPath2)" stroke="none">intro:INT2 Actualization Of Feature</text>
    </g>
    <g fill="white" text-rendering="geometricPrecision" shape-rendering="geometricPrecision" transform="matrix(1,0,0,1,-422,15)" stroke="white">
      <path d="M536.6317 864.6968 L767.3365 864.6968 L767.3365 901.585 Q767.3365 911.585 757.3365 911.585 L546.6317 911.585 Q536.6317 911.585 536.6317 901.585 Z" stroke="none" clip-path="url(#clipPath2)"/>
      <path fill="url(#linearGradient7)" d="M536.6317 829.8085 Q536.6317 819.8085 546.6317 819.8085 L757.3365 819.8085 Q767.3365 819.8085 767.3365 829.8085 L767.3365 865.6967 L536.6317 865.6967 Z" clip-path="url(#clipPath2)" stroke="none"/>
      <path fill="none" d="M538.6317 829.8085 Q538.6317 821.8085 546.6317 821.8085 L757.3365 821.8085 Q765.3365 821.8085 765.3365 829.8085 L765.3365 901.585 Q765.3365 909.585 757.3365 909.585 L546.6317 909.585 Q538.6317 909.585 538.6317 901.585 Z" stroke-width="2" clip-path="url(#clipPath2)" stroke="rgb(217,217,217)"/>
      <path fill="none" d="M538.6317 829.8085 Q538.6317 821.8085 546.6317 821.8085 L757.3365 821.8085 Q765.3365 821.8085 765.3365 829.8085 L765.3365 901.585 Q765.3365 909.585 757.3365 909.585 L546.6317 909.585 Q538.6317 909.585 538.6317 901.585 Z" clip-path="url(#clipPath2)" stroke="black"/>
    </g>
    <g text-rendering="geometricPrecision" stroke-miterlimit="1.45" shape-rendering="geometricPrecision" font-family="sans-serif" transform="matrix(1,0,0,1,-422,15)" stroke-linecap="butt">
      <text x="590.3962" xml:space="preserve" y="841.9663" clip-path="url(#clipPath2)" stroke="none">INTERPRETATION OF </text>
      <text x="583.825" xml:space="preserve" y="856.0991" clip-path="url(#clipPath2)" stroke="none">MOTIF ACTUALIZATION</text>
      <text x="603.9197" xml:space="preserve" y="870.2319" clip-path="url(#clipPath2)" stroke="none">IN EXPRESSION B</text>
      <text x="619.9802" xml:space="preserve" y="884.3647" clip-path="url(#clipPath2)" stroke="none">instance of</text>
      <text x="584.3757" xml:space="preserve" y="898.4976" clip-path="url(#clipPath2)" stroke="none">intro:INT Interpretation</text>
    </g>
    <g fill="white" text-rendering="geometricPrecision" shape-rendering="geometricPrecision" transform="matrix(1,0,0,1,-422,15)" stroke="white">
      <path d="M587.4504 712.8848 L845.5861 712.8848 L845.5861 758.1547 Q845.5861 768.1547 835.5861 768.1547 L597.4504 768.1547 Q587.4504 768.1547 587.4504 758.1547 Z" stroke="none" clip-path="url(#clipPath2)"/>
      <path fill="url(#linearGradient8)" d="M587.4504 669.615 Q587.4504 659.615 597.4504 659.615 L835.5861 659.615 Q845.5861 659.615 845.5861 669.615 L845.5861 713.8849 L587.4504 713.8849 Z" clip-path="url(#clipPath2)" stroke="none"/>
      <path fill="none" d="M589.4504 669.615 Q589.4504 661.615 597.4504 661.615 L835.5861 661.615 Q843.5861 661.615 843.5861 669.615 L843.5861 758.1547 Q843.5861 766.1547 835.5861 766.1547 L597.4504 766.1547 Q589.4504 766.1547 589.4504 758.1547 Z" stroke-width="2" clip-path="url(#clipPath2)" stroke="rgb(217,217,217)"/>
      <path fill="none" d="M589.4504 669.615 Q589.4504 661.615 597.4504 661.615 L835.5861 661.615 Q843.5861 661.615 843.5861 669.615 L843.5861 758.1547 Q843.5861 766.1547 835.5861 766.1547 L597.4504 766.1547 Q589.4504 766.1547 589.4504 758.1547 Z" clip-path="url(#clipPath2)" stroke="black"/>
    </g>
    <g text-rendering="geometricPrecision" stroke-miterlimit="1.45" shape-rendering="geometricPrecision" font-family="sans-serif" transform="matrix(1,0,0,1,-422,15)" stroke-linecap="butt">
      <text x="595.5632" xml:space="preserve" y="690.1544" clip-path="url(#clipPath2)" stroke="none">ACTUALIZATION OF INTERPRETATION OF </text>
      <text x="648.3591" xml:space="preserve" y="704.2872" clip-path="url(#clipPath2)" stroke="none">MOTIF ACTUALIZATION</text>
      <text x="668.4538" xml:space="preserve" y="718.42" clip-path="url(#clipPath2)" stroke="none">IN EXPRESSION B</text>
      <text x="684.5143" xml:space="preserve" y="732.5528" clip-path="url(#clipPath2)" stroke="none">instance of</text>
      <text x="614.7233" xml:space="preserve" y="746.6856" clip-path="url(#clipPath2)" stroke="none">intro:INT2 Actualization Of Feature</text>
    </g>
    <g fill="white" text-rendering="geometricPrecision" shape-rendering="geometricPrecision" transform="matrix(1,0,0,1,-422,15)" stroke="white">
      <path d="M1968.5724 712.8848 L2164.1538 712.8848 L2164.1538 747.3278 Q2164.1538 757.3278 2154.1538 757.3278 L1978.5724 757.3278 Q1968.5724 757.3278 1968.5724 747.3278 Z" stroke="none" clip-path="url(#clipPath2)"/>
      <path fill="url(#linearGradient9)" d="M1968.5724 680.4419 Q1968.5724 670.4419 1978.5724 670.4419 L2154.1538 670.4419 Q2164.1538 670.4419 2164.1538 680.4419 L2164.1538 713.8848 L1968.5724 713.8848 Z" clip-path="url(#clipPath2)" stroke="none"/>
      <path fill="none" d="M1970.5724 680.4419 Q1970.5724 672.4419 1978.5724 672.4419 L2154.1538 672.4419 Q2162.1538 672.4419 2162.1538 680.4419 L2162.1538 747.3278 Q2162.1538 755.3278 2154.1538 755.3278 L1978.5724 755.3278 Q1970.5724 755.3278 1970.5724 747.3278 Z" stroke-width="2" clip-path="url(#clipPath2)" stroke="rgb(217,217,217)"/>
      <path fill="none" d="M1970.5724 680.4419 Q1970.5724 672.4419 1978.5724 672.4419 L2154.1538 672.4419 Q2162.1538 672.4419 2162.1538 680.4419 L2162.1538 747.3278 Q2162.1538 755.3278 2154.1538 755.3278 L1978.5724 755.3278 Q1970.5724 755.3278 1970.5724 747.3278 Z" clip-path="url(#clipPath2)" stroke="black"/>
    </g>
    <g text-rendering="geometricPrecision" stroke-miterlimit="1.45" shape-rendering="geometricPrecision" font-family="sans-serif" transform="matrix(1,0,0,1,-422,15)" stroke-linecap="butt">
      <text x="2025.6697" xml:space="preserve" y="690.1544" clip-path="url(#clipPath2)" stroke="none">EXPRESSION A</text>
      <text x="2034.3591" xml:space="preserve" y="704.2872" clip-path="url(#clipPath2)" stroke="none">instance of</text>
      <text x="2006.6267" xml:space="preserve" y="718.42" clip-path="url(#clipPath2)" stroke="none">lrmoo:F2 Expression</text>
      <text x="1999.7771" xml:space="preserve" y="732.5528" clip-path="url(#clipPath2)" stroke="none">(frbroo: F2 Expression;</text>
      <text x="2014.7361" xml:space="preserve" y="746.6856" clip-path="url(#clipPath2)" stroke="none">see work module)</text>
    </g>
    <g fill="white" text-rendering="geometricPrecision" shape-rendering="geometricPrecision" transform="matrix(1,0,0,1,-422,15)" stroke="white">
      <path d="M1172.6519 712.8848 L1403.0243 712.8848 L1403.0243 748.244 Q1403.0243 758.244 1393.0243 758.244 L1182.6519 758.244 Q1172.6519 758.244 1172.6519 748.244 Z" stroke="none" clip-path="url(#clipPath2)"/>
      <path fill="url(#linearGradient10)" d="M1172.6519 679.5257 Q1172.6519 669.5257 1182.6519 669.5257 L1393.0243 669.5257 Q1403.0243 669.5257 1403.0243 679.5257 L1403.0243 713.8849 L1172.6519 713.8849 Z" clip-path="url(#clipPath2)" stroke="none"/>
      <path fill="none" d="M1174.6519 679.5257 Q1174.6519 671.5257 1182.6519 671.5257 L1393.0243 671.5257 Q1401.0243 671.5257 1401.0243 679.5257 L1401.0243 748.244 Q1401.0243 756.244 1393.0243 756.244 L1182.6519 756.244 Q1174.6519 756.244 1174.6519 748.244 Z" stroke-width="2" clip-path="url(#clipPath2)" stroke="rgb(217,217,217)"/>
      <path fill="none" d="M1174.6519 679.5257 Q1174.6519 671.5257 1182.6519 671.5257 L1393.0243 671.5257 Q1401.0243 671.5257 1401.0243 679.5257 L1401.0243 748.244 Q1401.0243 756.244 1393.0243 756.244 L1182.6519 756.244 Q1174.6519 756.244 1174.6519 748.244 Z" clip-path="url(#clipPath2)" stroke="black"/>
    </g>
    <g text-rendering="geometricPrecision" stroke-miterlimit="1.45" shape-rendering="geometricPrecision" font-family="sans-serif" transform="matrix(1,0,0,1,-422,15)" stroke-linecap="butt">
      <text x="1247.8333" xml:space="preserve" y="690.1544" clip-path="url(#clipPath2)" stroke="none">EXPRESSION B</text>
      <text x="1255.8342" xml:space="preserve" y="704.2872" clip-path="url(#clipPath2)" stroke="none">instance of</text>
      <text x="1228.1018" xml:space="preserve" y="718.42" clip-path="url(#clipPath2)" stroke="none">lrmoo:F2 Expression</text>
      <text x="1221.2522" xml:space="preserve" y="732.5528" clip-path="url(#clipPath2)" stroke="none">(frbroo: F2 Expression;</text>
      <text x="1236.2112" xml:space="preserve" y="746.6856" clip-path="url(#clipPath2)" stroke="none">see work module)</text>
    </g>
    <g fill="white" text-rendering="geometricPrecision" shape-rendering="geometricPrecision" transform="matrix(1,0,0,1,-422,15)" stroke="white">
      <path d="M1267.6338 462.9339 L1489.9124 462.9339 L1489.9124 497.8059 Q1489.9124 507.8059 1479.9124 507.8059 L1277.6338 507.8059 Q1267.6338 507.8059 1267.6338 497.8059 Z" stroke="none" clip-path="url(#clipPath2)"/>
      <path fill="url(#linearGradient11)" d="M1267.6338 430.0619 Q1267.6338 420.0619 1277.6338 420.0619 L1479.9124 420.0619 Q1489.9124 420.0619 1489.9124 430.0619 L1489.9124 463.9339 L1267.6338 463.9339 Z" clip-path="url(#clipPath2)" stroke="none"/>
      <path fill="none" d="M1269.6338 430.0619 Q1269.6338 422.0619 1277.6338 422.0619 L1479.9124 422.0619 Q1487.9124 422.0619 1487.9124 430.0619 L1487.9124 497.806 Q1487.9124 505.806 1479.9124 505.806 L1277.6338 505.806 Q1269.6338 505.806 1269.6338 497.806 Z" stroke-width="2" clip-path="url(#clipPath2)" stroke="rgb(217,217,217)"/>
      <path fill="none" d="M1269.6338 430.0619 Q1269.6338 422.0619 1277.6338 422.0619 L1479.9124 422.0619 Q1487.9124 422.0619 1487.9124 430.0619 L1487.9124 497.806 Q1487.9124 505.806 1479.9124 505.806 L1277.6338 505.806 Q1269.6338 505.806 1269.6338 497.806 Z" clip-path="url(#clipPath2)" stroke="black"/>
    </g>
    <g text-rendering="geometricPrecision" stroke-miterlimit="1.45" shape-rendering="geometricPrecision" font-family="sans-serif" transform="matrix(1,0,0,1,-422,15)" stroke-linecap="butt">
      <text x="1304.7809" xml:space="preserve" y="454.3363" clip-path="url(#clipPath2)" stroke="none">INTERTEXTUAL RELATION</text>
      <text x="1346.7692" xml:space="preserve" y="468.4691" clip-path="url(#clipPath2)" stroke="none">instance of</text>
      <text x="1284.3434" xml:space="preserve" y="482.6019" clip-path="url(#clipPath2)" stroke="none">intro:INT31 Intertextual Relation</text>
    </g>
    <g fill="white" text-rendering="geometricPrecision" shape-rendering="geometricPrecision" transform="matrix(1,0,0,1,-422,15)" stroke="white">
      <path d="M1550.9127 462.9339 L1779.9961 462.9339 L1779.9961 492.5257 Q1779.9961 502.5257 1769.9961 502.5257 L1560.9127 502.5257 Q1550.9127 502.5257 1550.9127 492.5257 Z" stroke="none" clip-path="url(#clipPath2)"/>
      <path fill="url(#linearGradient12)" d="M1550.9127 435.3422 Q1550.9127 425.3422 1560.9127 425.3422 L1769.9961 425.3422 Q1779.9961 425.3422 1779.9961 435.3422 L1779.9961 463.9339 L1550.9127 463.9339 Z" clip-path="url(#clipPath2)" stroke="none"/>
      <path fill="none" d="M1552.9127 435.3422 Q1552.9127 427.3422 1560.9127 427.3422 L1769.9961 427.3422 Q1777.9961 427.3422 1777.9961 435.3422 L1777.9961 492.5257 Q1777.9961 500.5257 1769.9961 500.5257 L1560.9127 500.5257 Q1552.9127 500.5257 1552.9127 492.5257 Z" stroke-width="2" clip-path="url(#clipPath2)" stroke="rgb(217,217,217)"/>
      <path fill="none" d="M1552.9127 435.3422 Q1552.9127 427.3422 1560.9127 427.3422 L1769.9961 427.3422 Q1777.9961 427.3422 1777.9961 435.3422 L1777.9961 492.5257 Q1777.9961 500.5257 1769.9961 500.5257 L1560.9127 500.5257 Q1552.9127 500.5257 1552.9127 492.5257 Z" clip-path="url(#clipPath2)" stroke="black"/>
    </g>
    <g text-rendering="geometricPrecision" stroke-miterlimit="1.45" shape-rendering="geometricPrecision" font-family="sans-serif" transform="matrix(1,0,0,1,-422,15)" stroke-linecap="butt">
      <text x="1603.8665" xml:space="preserve" y="447.2699" clip-path="url(#clipPath2)" stroke="none">INTERPRETATION OF </text>
      <text x="1591.4622" xml:space="preserve" y="461.4027" clip-path="url(#clipPath2)" stroke="none">INTERTEXTUAL RELATION</text>
      <text x="1633.4504" xml:space="preserve" y="475.5355" clip-path="url(#clipPath2)" stroke="none">instance of</text>
      <text x="1597.8459" xml:space="preserve" y="489.6683" clip-path="url(#clipPath2)" stroke="none">intro:INT Interpretation</text>
    </g>
    <g fill="white" text-rendering="geometricPrecision" shape-rendering="geometricPrecision" transform="matrix(1,0,0,1,-422,15)" stroke="white">
      <path d="M1474.834 313.1908 L1728.9946 313.1908 L1728.9946 348.062 Q1728.9946 358.062 1718.9946 358.062 L1484.834 358.062 Q1474.834 358.062 1474.834 348.062 Z" stroke="none" clip-path="url(#clipPath2)"/>
      <path fill="url(#linearGradient13)" d="M1474.834 280.3196 Q1474.834 270.3196 1484.834 270.3196 L1718.9946 270.3196 Q1728.9946 270.3196 1728.9946 280.3196 L1728.9946 314.1907 L1474.834 314.1907 Z" clip-path="url(#clipPath2)" stroke="none"/>
      <path fill="none" d="M1476.834 280.3196 Q1476.834 272.3196 1484.834 272.3196 L1718.9946 272.3196 Q1726.9946 272.3196 1726.9946 280.3196 L1726.9946 348.0619 Q1726.9946 356.0619 1718.9946 356.0619 L1484.834 356.0619 Q1476.834 356.0619 1476.834 348.0619 Z" stroke-width="2" clip-path="url(#clipPath2)" stroke="rgb(217,217,217)"/>
      <path fill="none" d="M1476.834 280.3196 Q1476.834 272.3196 1484.834 272.3196 L1718.9946 272.3196 Q1726.9946 272.3196 1726.9946 280.3196 L1726.9946 348.0619 Q1726.9946 356.0619 1718.9946 356.0619 L1484.834 356.0619 Q1476.834 356.0619 1476.834 348.0619 Z" clip-path="url(#clipPath2)" stroke="black"/>
    </g>
    <g text-rendering="geometricPrecision" stroke-miterlimit="1.45" shape-rendering="geometricPrecision" font-family="sans-serif" transform="matrix(1,0,0,1,-422,15)" stroke-linecap="butt">
      <text x="1480.9592" xml:space="preserve" y="297.5267" clip-path="url(#clipPath2)" stroke="none">ACTUALIZATION OF INTERPRETATION OF </text>
      <text x="1527.9221" xml:space="preserve" y="311.6595" clip-path="url(#clipPath2)" stroke="none">INTERTEXTUAL RELATION</text>
      <text x="1569.9104" xml:space="preserve" y="325.7923" clip-path="url(#clipPath2)" stroke="none">instance of</text>
      <text x="1501.095" xml:space="preserve" y="339.9251" clip-path="url(#clipPath2)" stroke="none">intro:INT2 Actualization of Feature</text>
    </g>
    <g fill="white" text-rendering="geometricPrecision" shape-rendering="geometricPrecision" transform="matrix(1,0,0,1,-422,15)" stroke="white">
      <path d="M1359.9896 1260.7383 L1483.0613 1260.7383 L1483.0613 1298.2263 Q1483.0613 1308.2263 1473.0613 1308.2263 L1369.9896 1308.2263 Q1359.9896 1308.2263 1359.9896 1298.2263 Z" stroke="none" clip-path="url(#clipPath2)"/>
      <path fill="url(#linearGradient14)" d="M1359.9896 1225.2502 Q1359.9896 1215.2502 1369.9896 1215.2502 L1473.0613 1215.2502 Q1483.0613 1215.2502 1483.0613 1225.2502 L1483.0613 1261.7383 L1359.9896 1261.7383 Z" clip-path="url(#clipPath2)" stroke="none"/>
      <path fill="none" d="M1361.9896 1225.2502 Q1361.9896 1217.2502 1369.9896 1217.2502 L1473.0613 1217.2502 Q1481.0613 1217.2502 1481.0613 1225.2502 L1481.0613 1298.2262 Q1481.0613 1306.2262 1473.0613 1306.2262 L1369.9896 1306.2262 Q1361.9896 1306.2262 1361.9896 1298.2262 Z" stroke-width="2" clip-path="url(#clipPath2)" stroke="rgb(217,217,217)"/>
      <path fill="none" d="M1361.9896 1225.2502 Q1361.9896 1217.2502 1369.9896 1217.2502 L1473.0613 1217.2502 Q1481.0613 1217.2502 1481.0613 1225.2502 L1481.0613 1298.2262 Q1481.0613 1306.2262 1473.0613 1306.2262 L1369.9896 1306.2262 Q1361.9896 1306.2262 1361.9896 1298.2262 Z" clip-path="url(#clipPath2)" stroke="black"/>
    </g>
    <g text-rendering="geometricPrecision" stroke-miterlimit="1.45" shape-rendering="geometricPrecision" font-family="sans-serif" transform="matrix(1,0,0,1,-422,15)" stroke-linecap="butt">
      <text x="1373.2705" xml:space="preserve" y="1266.2734" clip-path="url(#clipPath2)" stroke="none">wikidata_id_type</text>
    </g>
    <g fill="white" text-rendering="geometricPrecision" shape-rendering="geometricPrecision" transform="matrix(1,0,0,1,-422,15)" stroke="white">
      <path d="M1327.8361 864.6968 L1548.5931 864.6968 L1548.5931 896.804 Q1548.5931 906.804 1538.5931 906.804 L1337.8361 906.804 Q1327.8361 906.804 1327.8361 896.804 Z" stroke="none" clip-path="url(#clipPath2)"/>
      <path fill="url(#linearGradient15)" d="M1327.8361 834.5896 Q1327.8361 824.5896 1337.8361 824.5896 L1538.5931 824.5896 Q1548.5931 824.5896 1548.5931 834.5896 L1548.5931 865.6968 L1327.8361 865.6968 Z" clip-path="url(#clipPath2)" stroke="none"/>
      <path fill="none" d="M1329.8361 834.5896 Q1329.8361 826.5896 1337.8361 826.5896 L1538.5931 826.5896 Q1546.5931 826.5896 1546.5931 834.5896 L1546.5931 896.804 Q1546.5931 904.804 1538.5931 904.804 L1337.8361 904.804 Q1329.8361 904.804 1329.8361 896.804 Z" stroke-width="2" clip-path="url(#clipPath2)" stroke="rgb(217,217,217)"/>
      <path fill="none" d="M1329.8361 834.5896 Q1329.8361 826.5896 1337.8361 826.5896 L1538.5931 826.5896 Q1546.5931 826.5896 1546.5931 834.5896 L1546.5931 896.804 Q1546.5931 904.804 1538.5931 904.804 L1337.8361 904.804 Q1329.8361 904.804 1329.8361 896.804 Z" clip-path="url(#clipPath2)" stroke="black"/>
    </g>
    <g text-rendering="geometricPrecision" stroke-miterlimit="1.45" shape-rendering="geometricPrecision" font-family="sans-serif" transform="matrix(1,0,0,1,-422,15)" stroke-linecap="butt">
      <text x="1352.9989" xml:space="preserve" y="849.0327" clip-path="url(#clipPath2)" stroke="none">CHARACTER ACTUALIZATION</text>
      <text x="1390.1503" xml:space="preserve" y="863.1655" clip-path="url(#clipPath2)" stroke="none">IN EXPRESSION B</text>
      <text x="1406.2108" xml:space="preserve" y="877.2983" clip-path="url(#clipPath2)" stroke="none">instance of</text>
      <text x="1336.4198" xml:space="preserve" y="891.4312" clip-path="url(#clipPath2)" stroke="none">intro:INT2 Actualization Of Feature</text>
    </g>
    <g fill="white" text-rendering="geometricPrecision" shape-rendering="geometricPrecision" transform="matrix(1,0,0,1,-422,15)" stroke="white">
      <path d="M1598.5936 864.6968 L1829.2985 864.6968 L1829.2985 900.7743 Q1829.2985 910.7743 1819.2985 910.7743 L1608.5936 910.7743 Q1598.5936 910.7743 1598.5936 900.7743 Z" stroke="none" clip-path="url(#clipPath2)"/>
      <path fill="url(#linearGradient16)" d="M1598.5936 830.6193 Q1598.5936 820.6193 1608.5936 820.6193 L1819.2985 820.6193 Q1829.2985 820.6193 1829.2985 830.6193 L1829.2985 865.6968 L1598.5936 865.6968 Z" clip-path="url(#clipPath2)" stroke="none"/>
      <path fill="none" d="M1600.5936 830.6193 Q1600.5936 822.6193 1608.5936 822.6193 L1819.2985 822.6193 Q1827.2985 822.6193 1827.2985 830.6193 L1827.2985 900.7742 Q1827.2985 908.7742 1819.2985 908.7742 L1608.5936 908.7742 Q1600.5936 908.7742 1600.5936 900.7742 Z" stroke-width="2" clip-path="url(#clipPath2)" stroke="rgb(217,217,217)"/>
      <path fill="none" d="M1600.5936 830.6193 Q1600.5936 822.6193 1608.5936 822.6193 L1819.2985 822.6193 Q1827.2985 822.6193 1827.2985 830.6193 L1827.2985 900.7742 Q1827.2985 908.7742 1819.2985 908.7742 L1608.5936 908.7742 Q1600.5936 908.7742 1600.5936 900.7742 Z" clip-path="url(#clipPath2)" stroke="black"/>
    </g>
    <g text-rendering="geometricPrecision" stroke-miterlimit="1.45" shape-rendering="geometricPrecision" font-family="sans-serif" transform="matrix(1,0,0,1,-422,15)" stroke-linecap="butt">
      <text x="1652.3582" xml:space="preserve" y="841.9663" clip-path="url(#clipPath2)" stroke="none">INTERPRETATION OF </text>
      <text x="1628.7302" xml:space="preserve" y="856.0991" clip-path="url(#clipPath2)" stroke="none">CHARACTER ACTUALIZATION</text>
      <text x="1665.8816" xml:space="preserve" y="870.2319" clip-path="url(#clipPath2)" stroke="none">IN EXPRESSION B</text>
      <text x="1681.9421" xml:space="preserve" y="884.3647" clip-path="url(#clipPath2)" stroke="none">instance of</text>
      <text x="1646.3376" xml:space="preserve" y="898.4976" clip-path="url(#clipPath2)" stroke="none">intro:INT Interpretation</text>
    </g>
    <g fill="white" text-rendering="geometricPrecision" shape-rendering="geometricPrecision" transform="matrix(1,0,0,1,-422,15)" stroke="white">
      <path d="M1521.1222 712.8848 L1778.2207 712.8848 L1778.2207 753.3613 Q1778.2207 763.3613 1768.2207 763.3613 L1531.1222 763.3613 Q1521.1222 763.3613 1521.1222 753.3613 Z" stroke="none" clip-path="url(#clipPath2)"/>
      <path fill="url(#linearGradient17)" d="M1521.1222 674.4084 Q1521.1222 664.4084 1531.1222 664.4084 L1768.2207 664.4084 Q1778.2207 664.4084 1778.2207 674.4084 L1778.2207 713.8848 L1521.1222 713.8848 Z" clip-path="url(#clipPath2)" stroke="none"/>
      <path fill="none" d="M1523.1222 674.4084 Q1523.1222 666.4084 1531.1222 666.4084 L1768.2207 666.4084 Q1776.2207 666.4084 1776.2207 674.4084 L1776.2207 753.3613 Q1776.2207 761.3613 1768.2207 761.3613 L1531.1222 761.3613 Q1523.1222 761.3613 1523.1222 753.3613 Z" stroke-width="2" clip-path="url(#clipPath2)" stroke="rgb(217,217,217)"/>
      <path fill="none" d="M1523.1222 674.4084 Q1523.1222 666.4084 1531.1222 666.4084 L1768.2207 666.4084 Q1776.2207 666.4084 1776.2207 674.4084 L1776.2207 753.3613 Q1776.2207 761.3613 1768.2207 761.3613 L1531.1222 761.3613 Q1523.1222 761.3613 1523.1222 753.3613 Z" clip-path="url(#clipPath2)" stroke="black"/>
    </g>
    <g text-rendering="geometricPrecision" stroke-miterlimit="1.45" shape-rendering="geometricPrecision" font-family="sans-serif" transform="matrix(1,0,0,1,-422,15)" stroke-linecap="butt">
      <text x="1528.7163" xml:space="preserve" y="690.1544" clip-path="url(#clipPath2)" stroke="none">ACTUALIZATION OF INTERPRETATION OF </text>
      <text x="1564.4556" xml:space="preserve" y="704.2872" clip-path="url(#clipPath2)" stroke="none">CHARACTER ACTUALIZATION</text>
      <text x="1601.6069" xml:space="preserve" y="718.42" clip-path="url(#clipPath2)" stroke="none">IN EXPRESSION B</text>
      <text x="1617.6675" xml:space="preserve" y="732.5528" clip-path="url(#clipPath2)" stroke="none">instance of</text>
      <text x="1547.8765" xml:space="preserve" y="746.6856" clip-path="url(#clipPath2)" stroke="none">intro:INT2 Actualization Of Feature</text>
    </g>
    <g fill="white" text-rendering="geometricPrecision" shape-rendering="geometricPrecision" transform="matrix(1,0,0,1,-422,15)" stroke="white">
      <path d="M2131.3916 864.6968 L2355.3916 864.6968 L2355.3916 888.6968 Q2355.3916 898.6968 2345.3916 898.6968 L2141.3916 898.6968 Q2131.3916 898.6968 2131.3916 888.6968 Z" stroke="none" clip-path="url(#clipPath2)"/>
      <path fill="url(#linearGradient18)" d="M2131.3916 842.6968 Q2131.3916 832.6968 2141.3916 832.6968 L2345.3916 832.6968 Q2355.3916 832.6968 2355.3916 842.6968 L2355.3916 865.6968 L2131.3916 865.6968 Z" clip-path="url(#clipPath2)" stroke="none"/>
      <path fill="none" d="M2133.3916 842.6968 Q2133.3916 834.6968 2141.3916 834.6968 L2345.3916 834.6968 Q2353.3916 834.6968 2353.3916 842.6968 L2353.3916 888.6968 Q2353.3916 896.6968 2345.3916 896.6968 L2141.3916 896.6968 Q2133.3916 896.6968 2133.3916 888.6968 Z" stroke-width="2" clip-path="url(#clipPath2)" stroke="rgb(217,217,217)"/>
      <path fill="none" d="M2133.3916 842.6968 Q2133.3916 834.6968 2141.3916 834.6968 L2345.3916 834.6968 Q2353.3916 834.6968 2353.3916 842.6968 L2353.3916 888.6968 Q2353.3916 896.6968 2345.3916 896.6968 L2141.3916 896.6968 Q2133.3916 896.6968 2133.3916 888.6968 Z" clip-path="url(#clipPath2)" stroke="black"/>
    </g>
    <g text-rendering="geometricPrecision" stroke-miterlimit="1.45" shape-rendering="geometricPrecision" font-family="sans-serif" transform="matrix(1,0,0,1,-422,15)" stroke-linecap="butt">
      <text x="2158.1758" xml:space="preserve" y="849.0327" clip-path="url(#clipPath2)" stroke="none">CHARACTER ACTUALIZATION</text>
      <text x="2194.6387" xml:space="preserve" y="863.1655" clip-path="url(#clipPath2)" stroke="none">IN EXPRESSION A</text>
      <text x="2211.3877" xml:space="preserve" y="877.2983" clip-path="url(#clipPath2)" stroke="none">instance of</text>
      <text x="2141.5967" xml:space="preserve" y="891.4312" clip-path="url(#clipPath2)" stroke="none">intro:INT2 Actualization Of Feature</text>
    </g>
    <g fill="white" text-rendering="geometricPrecision" shape-rendering="geometricPrecision" transform="matrix(1,0,0,1,-422,15)" stroke="white">
      <path d="M2405.3921 864.6968 L2634.4756 864.6968 L2634.4756 902.3957 Q2634.4756 912.3957 2624.4756 912.3957 L2415.3921 912.3957 Q2405.3921 912.3957 2405.3921 902.3957 Z" stroke="none" clip-path="url(#clipPath2)"/>
      <path fill="url(#linearGradient19)" d="M2405.3921 828.9979 Q2405.3921 818.9979 2415.3921 818.9979 L2624.4756 818.9979 Q2634.4756 818.9979 2634.4756 828.9979 L2634.4756 865.6968 L2405.3921 865.6968 Z" clip-path="url(#clipPath2)" stroke="none"/>
      <path fill="none" d="M2407.3921 828.9979 Q2407.3921 820.9979 2415.3921 820.9979 L2624.4756 820.9979 Q2632.4756 820.9979 2632.4756 828.9979 L2632.4756 902.3958 Q2632.4756 910.3958 2624.4756 910.3958 L2415.3921 910.3958 Q2407.3921 910.3958 2407.3921 902.3958 Z" stroke-width="2" clip-path="url(#clipPath2)" stroke="rgb(217,217,217)"/>
      <path fill="none" d="M2407.3921 828.9979 Q2407.3921 820.9979 2415.3921 820.9979 L2624.4756 820.9979 Q2632.4756 820.9979 2632.4756 828.9979 L2632.4756 902.3958 Q2632.4756 910.3958 2624.4756 910.3958 L2415.3921 910.3958 Q2407.3921 910.3958 2407.3921 902.3958 Z" clip-path="url(#clipPath2)" stroke="black"/>
    </g>
    <g text-rendering="geometricPrecision" stroke-miterlimit="1.45" shape-rendering="geometricPrecision" font-family="sans-serif" transform="matrix(1,0,0,1,-422,15)" stroke-linecap="butt">
      <text x="2458.3459" xml:space="preserve" y="841.9663" clip-path="url(#clipPath2)" stroke="none">INTERPRETATION OF </text>
      <text x="2434.718" xml:space="preserve" y="856.0991" clip-path="url(#clipPath2)" stroke="none">CHARACTER ACTUALIZATION</text>
      <text x="2471.1809" xml:space="preserve" y="870.2319" clip-path="url(#clipPath2)" stroke="none">IN EXPRESSION A</text>
      <text x="2487.9299" xml:space="preserve" y="884.3647" clip-path="url(#clipPath2)" stroke="none">instance of</text>
      <text x="2452.3254" xml:space="preserve" y="898.4976" clip-path="url(#clipPath2)" stroke="none">intro:INT Interpretation</text>
    </g>
    <g fill="white" text-rendering="geometricPrecision" shape-rendering="geometricPrecision" transform="matrix(1,0,0,1,-422,15)" stroke="white">
      <path d="M2329.5706 712.8848 L2583.3882 712.8848 L2583.3882 757.6507 Q2583.3882 767.6507 2573.3882 767.6507 L2339.5706 767.6507 Q2329.5706 767.6507 2329.5706 757.6507 Z" stroke="none" clip-path="url(#clipPath2)"/>
      <path fill="url(#linearGradient20)" d="M2329.5706 670.119 Q2329.5706 660.119 2339.5706 660.119 L2573.3882 660.119 Q2583.3882 660.119 2583.3882 670.119 L2583.3882 713.8848 L2329.5706 713.8848 Z" clip-path="url(#clipPath2)" stroke="none"/>
      <path fill="none" d="M2331.5706 670.119 Q2331.5706 662.119 2339.5706 662.119 L2573.3882 662.119 Q2581.3882 662.119 2581.3882 670.119 L2581.3882 757.6507 Q2581.3882 765.6507 2573.3882 765.6507 L2339.5706 765.6507 Q2331.5706 765.6507 2331.5706 757.6507 Z" stroke-width="2" clip-path="url(#clipPath2)" stroke="rgb(217,217,217)"/>
      <path fill="none" d="M2331.5706 670.119 Q2331.5706 662.119 2339.5706 662.119 L2573.3882 662.119 Q2581.3882 662.119 2581.3882 670.119 L2581.3882 757.6507 Q2581.3882 765.6507 2573.3882 765.6507 L2339.5706 765.6507 Q2331.5706 765.6507 2331.5706 757.6507 Z" clip-path="url(#clipPath2)" stroke="black"/>
    </g>
    <g text-rendering="geometricPrecision" stroke-miterlimit="1.45" shape-rendering="geometricPrecision" font-family="sans-serif" transform="matrix(1,0,0,1,-422,15)" stroke-linecap="butt">
      <text x="2335.5242" xml:space="preserve" y="690.1544" clip-path="url(#clipPath2)" stroke="none">ACTUALIZATION OF INTERPRETATION OF </text>
      <text x="2371.2634" xml:space="preserve" y="704.2872" clip-path="url(#clipPath2)" stroke="none">CHARACTER ACTUALIZATION</text>
      <text x="2407.7263" xml:space="preserve" y="718.42" clip-path="url(#clipPath2)" stroke="none">IN EXPRESSION A</text>
      <text x="2424.4753" xml:space="preserve" y="732.5528" clip-path="url(#clipPath2)" stroke="none">instance of</text>
      <text x="2355.6599" xml:space="preserve" y="746.6856" clip-path="url(#clipPath2)" stroke="none">intro:INT2 Actualization of Feature</text>
    </g>
    <g fill="white" text-rendering="geometricPrecision" shape-rendering="geometricPrecision" transform="matrix(1,0,0,1,-422,15)" stroke="white">
      <path d="M1352.9828 1126.7622 L1490.0681 1126.7622 L1490.0681 1164.2502 Q1490.0681 1174.2502 1480.0681 1174.2502 L1362.9828 1174.2502 Q1352.9828 1174.2502 1352.9828 1164.2502 Z" stroke="none" clip-path="url(#clipPath2)"/>
      <path fill="url(#linearGradient21)" d="M1352.9828 1091.2743 Q1352.9828 1081.2743 1362.9828 1081.2743 L1480.0681 1081.2743 Q1490.0681 1081.2743 1490.0681 1091.2743 L1490.0681 1127.7623 L1352.9828 1127.7623 Z" clip-path="url(#clipPath2)" stroke="none"/>
      <path fill="none" d="M1354.9828 1091.2743 Q1354.9828 1083.2743 1362.9828 1083.2743 L1480.0681 1083.2743 Q1488.0681 1083.2743 1488.0681 1091.2743 L1488.0681 1164.2502 Q1488.0681 1172.2502 1480.0681 1172.2502 L1362.9828 1172.2502 Q1354.9828 1172.2502 1354.9828 1164.2502 Z" stroke-width="2" clip-path="url(#clipPath2)" stroke="rgb(217,217,217)"/>
      <path fill="none" d="M1354.9828 1091.2743 Q1354.9828 1083.2743 1362.9828 1083.2743 L1480.0681 1083.2743 Q1488.0681 1083.2743 1488.0681 1091.2743 L1488.0681 1164.2502 Q1488.0681 1172.2502 1480.0681 1172.2502 L1362.9828 1172.2502 Q1354.9828 1172.2502 1354.9828 1164.2502 Z" clip-path="url(#clipPath2)" stroke="black"/>
    </g>
    <g text-rendering="geometricPrecision" stroke-miterlimit="1.45" shape-rendering="geometricPrecision" font-family="sans-serif" transform="matrix(1,0,0,1,-422,15)" stroke-linecap="butt">
      <text x="1384.3301" xml:space="preserve" y="1118.1646" clip-path="url(#clipPath2)" stroke="none">WIKIDATA ID</text>
      <text x="1389.5215" xml:space="preserve" y="1132.2974" clip-path="url(#clipPath2)" stroke="none">instance of</text>
      <text x="1362.9814" xml:space="preserve" y="1146.4302" clip-path="url(#clipPath2)" stroke="none">e/crm:E42 Identifier</text>
    </g>
    <g fill="white" text-rendering="geometricPrecision" shape-rendering="geometricPrecision" transform="matrix(1,0,0,1,-422,15)" stroke="white">
      <path d="M1344.5254 1025.2743 L1498.5254 1025.2743 L1498.5254 1051.2743 Q1498.5254 1061.2743 1488.5254 1061.2743 L1354.5254 1061.2743 Q1344.5254 1061.2743 1344.5254 1051.2743 Z" stroke="none" clip-path="url(#clipPath2)"/>
      <path fill="url(#linearGradient22)" d="M1344.5254 1001.2743 Q1344.5254 991.2743 1354.5254 991.2743 L1488.5254 991.2743 Q1498.5254 991.2743 1498.5254 1001.2743 L1498.5254 1026.2743 L1344.5254 1026.2743 Z" clip-path="url(#clipPath2)" stroke="none"/>
      <path fill="none" d="M1346.5254 1001.2743 Q1346.5254 993.2743 1354.5254 993.2743 L1488.5254 993.2743 Q1496.5254 993.2743 1496.5254 1001.2743 L1496.5254 1051.2743 Q1496.5254 1059.2743 1488.5254 1059.2743 L1354.5254 1059.2743 Q1346.5254 1059.2743 1346.5254 1051.2743 Z" stroke-width="2" clip-path="url(#clipPath2)" stroke="rgb(217,217,217)"/>
      <path fill="none" d="M1346.5254 1001.2743 Q1346.5254 993.2743 1354.5254 993.2743 L1488.5254 993.2743 Q1496.5254 993.2743 1496.5254 1001.2743 L1496.5254 1051.2743 Q1496.5254 1059.2743 1488.5254 1059.2743 L1354.5254 1059.2743 Q1346.5254 1059.2743 1346.5254 1051.2743 Z" clip-path="url(#clipPath2)" stroke="black"/>
    </g>
    <g text-rendering="geometricPrecision" stroke-miterlimit="1.45" shape-rendering="geometricPrecision" font-family="sans-serif" transform="matrix(1,0,0,1,-422,15)" stroke-linecap="butt">
      <text x="1382.5547" xml:space="preserve" y="1016.6766" clip-path="url(#clipPath2)" stroke="none">REAL PERSON</text>
      <text x="1389.5215" xml:space="preserve" y="1030.8094" clip-path="url(#clipPath2)" stroke="none">instance of</text>
      <text x="1369.6875" xml:space="preserve" y="1044.9423" clip-path="url(#clipPath2)" stroke="none">e/crm:E21 Person</text>
    </g>
    <g fill="white" text-rendering="geometricPrecision" shape-rendering="geometricPrecision" transform="matrix(1,0,0,1,-422,15)" stroke="white">
      <path d="M1548.5254 1025.2743 L1759.5254 1025.2743 L1759.5254 1048.7743 Q1759.5254 1058.7743 1749.5254 1058.7743 L1558.5254 1058.7743 Q1548.5254 1058.7743 1548.5254 1048.7743 Z" stroke="none" clip-path="url(#clipPath2)"/>
      <path fill="url(#linearGradient23)" d="M1548.5254 1003.7743 Q1548.5254 993.7743 1558.5254 993.7743 L1749.5254 993.7743 Q1759.5254 993.7743 1759.5254 1003.7743 L1759.5254 1026.2743 L1548.5254 1026.2743 Z" clip-path="url(#clipPath2)" stroke="none"/>
      <path fill="none" d="M1550.5254 1003.7743 Q1550.5254 995.7743 1558.5254 995.7743 L1749.5254 995.7743 Q1757.5254 995.7743 1757.5254 1003.7743 L1757.5254 1048.7743 Q1757.5254 1056.7743 1749.5254 1056.7743 L1558.5254 1056.7743 Q1550.5254 1056.7743 1550.5254 1048.7743 Z" stroke-width="2" clip-path="url(#clipPath2)" stroke="rgb(217,217,217)"/>
      <path fill="none" d="M1550.5254 1003.7743 Q1550.5254 995.7743 1558.5254 995.7743 L1749.5254 995.7743 Q1757.5254 995.7743 1757.5254 1003.7743 L1757.5254 1048.7743 Q1757.5254 1056.7743 1749.5254 1056.7743 L1558.5254 1056.7743 Q1550.5254 1056.7743 1550.5254 1048.7743 Z" clip-path="url(#clipPath2)" stroke="black"/>
    </g>
    <g text-rendering="geometricPrecision" stroke-miterlimit="1.45" shape-rendering="geometricPrecision" font-family="sans-serif" transform="matrix(1,0,0,1,-422,15)" stroke-linecap="butt">
      <text x="1590.8965" xml:space="preserve" y="1016.6766" clip-path="url(#clipPath2)" stroke="none">CHARACTER FEATURE</text>
      <text x="1622.0215" xml:space="preserve" y="1030.8094" clip-path="url(#clipPath2)" stroke="none">instance of</text>
      <text x="1598.3584" xml:space="preserve" y="1044.9423" clip-path="url(#clipPath2)" stroke="none">intro:INT Character</text>
    </g>
    <g fill="white" text-rendering="geometricPrecision" shape-rendering="geometricPrecision" transform="matrix(1,0,0,1,-422,15)" stroke="white">
      <path d="M1890.299 864.6968 L2081.3916 864.6968 L2081.3916 895.0248 Q2081.3916 905.0248 2071.3916 905.0248 L1900.299 905.0248 Q1890.299 905.0248 1890.299 895.0248 Z" stroke="none" clip-path="url(#clipPath2)"/>
      <path fill="url(#linearGradient24)" d="M1890.299 836.3688 Q1890.299 826.3688 1900.299 826.3688 L2071.3916 826.3688 Q2081.3916 826.3688 2081.3916 836.3688 L2081.3916 865.6968 L1890.299 865.6968 Z" clip-path="url(#clipPath2)" stroke="none"/>
      <path fill="none" d="M1892.299 836.3688 Q1892.299 828.3688 1900.299 828.3688 L2071.3916 828.3688 Q2079.3916 828.3688 2079.3916 836.3688 L2079.3916 895.0247 Q2079.3916 903.0247 2071.3916 903.0247 L1900.299 903.0247 Q1892.299 903.0247 1892.299 895.0247 Z" stroke-width="2" clip-path="url(#clipPath2)" stroke="rgb(217,217,217)"/>
      <path fill="none" d="M1892.299 836.3688 Q1892.299 828.3688 1900.299 828.3688 L2071.3916 828.3688 Q2079.3916 828.3688 2079.3916 836.3688 L2079.3916 895.0247 Q2079.3916 903.0247 2071.3916 903.0247 L1900.299 903.0247 Q1892.299 903.0247 1892.299 895.0247 Z" clip-path="url(#clipPath2)" stroke="black"/>
    </g>
    <g text-rendering="geometricPrecision" stroke-miterlimit="1.45" shape-rendering="geometricPrecision" font-family="sans-serif" transform="matrix(1,0,0,1,-422,15)" stroke-linecap="butt">
      <text x="1941.8062" xml:space="preserve" y="849.0327" clip-path="url(#clipPath2)" stroke="none">TEXT PASSAGE </text>
      <text x="1937.0923" xml:space="preserve" y="863.1655" clip-path="url(#clipPath2)" stroke="none">IN EXPRESSION A</text>
      <text x="1953.8413" xml:space="preserve" y="877.2983" clip-path="url(#clipPath2)" stroke="none">instance of</text>
      <text x="1912.5591" xml:space="preserve" y="891.4312" clip-path="url(#clipPath2)" stroke="none">intro:INT21 Text Passage</text>
    </g>
    <g fill="white" text-rendering="geometricPrecision" shape-rendering="geometricPrecision" transform="matrix(1,0,0,1,-422,15)" stroke="white">
      <path d="M1585.4828 1126.7622 L1722.5681 1126.7622 L1722.5681 1164.2502 Q1722.5681 1174.2502 1712.5681 1174.2502 L1595.4828 1174.2502 Q1585.4828 1174.2502 1585.4828 1164.2502 Z" stroke="none" clip-path="url(#clipPath2)"/>
      <path fill="url(#linearGradient25)" d="M1585.4828 1091.2743 Q1585.4828 1081.2743 1595.4828 1081.2743 L1712.5681 1081.2743 Q1722.5681 1081.2743 1722.5681 1091.2743 L1722.5681 1127.7623 L1585.4828 1127.7623 Z" clip-path="url(#clipPath2)" stroke="none"/>
      <path fill="none" d="M1587.4828 1091.2743 Q1587.4828 1083.2743 1595.4828 1083.2743 L1712.5681 1083.2743 Q1720.5681 1083.2743 1720.5681 1091.2743 L1720.5681 1164.2502 Q1720.5681 1172.2502 1712.5681 1172.2502 L1595.4828 1172.2502 Q1587.4828 1172.2502 1587.4828 1164.2502 Z" stroke-width="2" clip-path="url(#clipPath2)" stroke="rgb(217,217,217)"/>
      <path fill="none" d="M1587.4828 1091.2743 Q1587.4828 1083.2743 1595.4828 1083.2743 L1712.5681 1083.2743 Q1720.5681 1083.2743 1720.5681 1091.2743 L1720.5681 1164.2502 Q1720.5681 1172.2502 1712.5681 1172.2502 L1595.4828 1172.2502 Q1587.4828 1172.2502 1587.4828 1164.2502 Z" clip-path="url(#clipPath2)" stroke="black"/>
    </g>
    <g text-rendering="geometricPrecision" stroke-miterlimit="1.45" shape-rendering="geometricPrecision" font-family="sans-serif" transform="matrix(1,0,0,1,-422,15)" stroke-linecap="butt">
      <text x="1616.8301" xml:space="preserve" y="1118.1646" clip-path="url(#clipPath2)" stroke="none">WIKIDATA ID</text>
      <text x="1622.0215" xml:space="preserve" y="1132.2974" clip-path="url(#clipPath2)" stroke="none">instance of</text>
      <text x="1595.4814" xml:space="preserve" y="1146.4302" clip-path="url(#clipPath2)" stroke="none">e/crm:E42 Identifier</text>
    </g>
    <g fill="white" text-rendering="geometricPrecision" shape-rendering="geometricPrecision" transform="matrix(1,0,0,1,-422,15)" stroke="white">
      <path d="M1091.3369 864.6968 L1277.8359 864.6968 L1277.8359 901.1495 Q1277.8359 911.1495 1267.8359 911.1495 L1101.3369 911.1495 Q1091.3369 911.1495 1091.3369 901.1495 Z" stroke="none" clip-path="url(#clipPath2)"/>
      <path fill="url(#linearGradient26)" d="M1091.3369 830.244 Q1091.3369 820.244 1101.3369 820.244 L1267.8359 820.244 Q1277.8359 820.244 1277.8359 830.244 L1277.8359 865.6968 L1091.3369 865.6968 Z" clip-path="url(#clipPath2)" stroke="none"/>
      <path fill="none" d="M1093.3369 830.244 Q1093.3369 822.244 1101.3369 822.244 L1267.8359 822.244 Q1275.8359 822.244 1275.8359 830.244 L1275.8359 901.1495 Q1275.8359 909.1495 1267.8359 909.1495 L1101.3369 909.1495 Q1093.3369 909.1495 1093.3369 901.1495 Z" stroke-width="2" clip-path="url(#clipPath2)" stroke="rgb(217,217,217)"/>
      <path fill="none" d="M1093.3369 830.244 Q1093.3369 822.244 1101.3369 822.244 L1267.8359 822.244 Q1275.8359 822.244 1275.8359 830.244 L1275.8359 901.1495 Q1275.8359 909.1495 1267.8359 909.1495 L1101.3369 909.1495 Q1093.3369 909.1495 1093.3369 901.1495 Z" clip-path="url(#clipPath2)" stroke="black"/>
    </g>
    <g text-rendering="geometricPrecision" stroke-miterlimit="1.45" shape-rendering="geometricPrecision" font-family="sans-serif" transform="matrix(1,0,0,1,-422,15)" stroke-linecap="butt">
      <text x="1140.5475" xml:space="preserve" y="849.0327" clip-path="url(#clipPath2)" stroke="none">TEXT PASSAGE </text>
      <text x="1136.5221" xml:space="preserve" y="863.1655" clip-path="url(#clipPath2)" stroke="none">IN EXPRESSION B</text>
      <text x="1152.5826" xml:space="preserve" y="877.2983" clip-path="url(#clipPath2)" stroke="none">instance of</text>
      <text x="1111.3004" xml:space="preserve" y="891.4312" clip-path="url(#clipPath2)" stroke="none">intro:INT21 Text Passage</text>
    </g>
    <g text-rendering="geometricPrecision" stroke-miterlimit="1.45" shape-rendering="geometricPrecision" transform="matrix(1,0,0,1,-422,15)" stroke-linecap="butt">
      <path fill="none" d="M853.6702 345.1908 L853.6702 365.6908 L506.1313 365.6908 L506.1313 409.4207" clip-path="url(#clipPath2)"/>
    </g>
    <g text-rendering="geometricPrecision" stroke-miterlimit="1.45" shape-rendering="geometricPrecision" transform="matrix(1,0,0,1,-422,15)" stroke-linecap="butt">
      <path d="M506.1313 417.4207 L511.1313 405.4207 L506.1313 408.4207 L501.1313 405.4207 Z" stroke="none" clip-path="url(#clipPath2)"/>
      <text x="513.1313" xml:space="preserve" y="407.9147" clip-path="url(#clipPath2)" font-family="sans-serif" stroke="none">e/crm:P1 is identified by</text>
      <path fill="none" d="M1295.0004 242.1908 L1295.0004 262.6908 L901.3369 262.6908 L901.3369 275.1507" clip-path="url(#clipPath2)"/>
      <path d="M901.3369 283.1507 L906.3369 271.1507 L901.3369 274.1507 L896.3369 271.1507 Z" clip-path="url(#clipPath2)" stroke="none"/>
      <text x="1089.9281" xml:space="preserve" y="256.9759" clip-path="url(#clipPath2)" font-family="sans-serif" stroke="none">intro:R17 actualizes Feature</text>
      <path fill="none" d="M1442.5909 119.0597 L1442.5909 139.5597 L1369.6671 139.5597 L1369.6671 160.0557" clip-path="url(#clipPath2)"/>
      <path d="M1369.6671 168.0557 L1374.6671 156.0557 L1369.6671 159.0557 L1364.6671 156.0557 Z" clip-path="url(#clipPath2)" stroke="none"/>
      <text x="1288.7531" xml:space="preserve" y="133.8448" clip-path="url(#clipPath2)" font-family="sans-serif" stroke="none">intro:R21 identifies</text>
      <path fill="none" d="M1574.0959 119.0597 L1574.0959 139.5597 L1647.0199 139.5597 L1647.0199 152.0196" clip-path="url(#clipPath2)"/>
      <path d="M1647.0199 160.0196 L1652.0199 148.0196 L1647.0199 151.0196 L1642.0199 148.0196 Z" clip-path="url(#clipPath2)" stroke="none"/>
      <text x="1649.0199" xml:space="preserve" y="150.5284" clip-path="url(#clipPath2)" font-family="sans-serif" stroke="none">intro:R17 actualizes Feature</text>
      <path fill="none" d="M901.3369 827.803 L901.3369 353.1908" clip-path="url(#clipPath2)"/>
      <path d="M901.3369 345.1908 L896.3369 357.1908 L901.3369 354.1908 L906.3369 357.1908 Z" clip-path="url(#clipPath2)" stroke="none"/>
      <text x="736.2646" xml:space="preserve" y="539.3351" clip-path="url(#clipPath2)" font-family="sans-serif" stroke="none">intro:R17 actualizes Feature</text>
      <path fill="none" d="M781.0522 768.1547 L781.0522 788.6547 L845.3369 788.6547 L845.3369 819.7942" clip-path="url(#clipPath2)"/>
      <path d="M845.3369 827.7942 L850.3369 815.7942 L845.3369 818.7942 L840.3369 815.7942 Z" clip-path="url(#clipPath2)" stroke="none"/>
      <text x="808.0522" xml:space="preserve" y="787.9399" clip-path="url(#clipPath2)" font-family="sans-serif" stroke="none">intro:R21 identifies</text>
      <path fill="none" d="M651.9843 768.1547 L651.9841 811.7833" clip-path="url(#clipPath2)"/>
      <path d="M651.9841 819.7833 L656.9841 807.7833 L651.9841 810.7833 L646.9841 807.7833 Z" clip-path="url(#clipPath2)" stroke="none"/>
      <text x="658.9842" xml:space="preserve" y="810.2773" clip-path="url(#clipPath2)" font-family="sans-serif" stroke="none">intro:R17 actualizes Feature</text>
      <path fill="none" d="M2131.5569 670.4059 L2131.5569 523.0257 L1520.4124 523.0257 L1520.4124 378.5619 L1444.3337 378.5619 L1444.3337 250.1908" clip-path="url(#clipPath2)"/>
      <path d="M1444.3337 242.1908 L1439.3337 254.1908 L1444.3337 251.1908 L1449.3337 254.1908 Z" clip-path="url(#clipPath2)" stroke="none"/>
      <text x="1586.0256" xml:space="preserve" y="518.4944" clip-path="url(#clipPath2)" font-family="sans-serif" stroke="none">intro:R18 shows Actualization</text>
      <path fill="none" d="M1211.0472 758.244 L1211.0472 778.744 L1013.3369 778.744 L1013.3369 819.7845" clip-path="url(#clipPath2)"/>
      <path d="M1013.3369 827.7845 L1018.3369 815.7845 L1013.3369 818.7845 L1008.3369 815.7845 Z" clip-path="url(#clipPath2)" stroke="none"/>
      <text x="1100.6155" xml:space="preserve" y="785.9408" clip-path="url(#clipPath2)" font-family="sans-serif" stroke="none">intro:R18 shows Actualization</text>
      <path fill="none" d="M949.0036 345.1908 L949.0036 365.6908 L1304.6802 365.6908 L1304.6802 412.0354" clip-path="url(#clipPath2)"/>
      <path d="M1304.6802 420.0354 L1309.6802 408.0354 L1304.6802 411.0354 L1299.6802 408.0354 Z" clip-path="url(#clipPath2)" stroke="none"/>
      <text x="1063.6821" xml:space="preserve" y="411.0043" clip-path="url(#clipPath2)" font-family="sans-serif" stroke="none">intro:R22 provides Similarity For Relation</text>
      <path fill="none" d="M1434.3427 507.8059 L1434.3427 586.0257 L2001.1692 586.0257 L2001.1692 662.4007" clip-path="url(#clipPath2)"/>
      <path d="M2001.1692 670.4007 L2006.1692 658.4007 L2001.1692 661.4007 L1996.1692 658.4007 Z" clip-path="url(#clipPath2)" stroke="none"/>
      <text x="1661.9611" xml:space="preserve" y="576.4944" clip-path="url(#clipPath2)" font-family="sans-serif" stroke="none">intro:R24 has Related Entity</text>
      <path fill="none" d="M1323.2034 507.8059 L1323.2034 570.306 L1230.245 570.306 L1230.245 661.4772" clip-path="url(#clipPath2)"/>
      <path d="M1230.245 669.4772 L1235.245 657.4772 L1230.245 660.4772 L1225.245 657.4772 Z" clip-path="url(#clipPath2)" stroke="none"/>
      <text x="1149.4501" xml:space="preserve" y="599.6461" clip-path="url(#clipPath2)" font-family="sans-serif" stroke="none">intro:R24 has Related Entity</text>
      <path fill="none" d="M1378.7731 420.0235 L1378.7731 262.6908 L1369.6671 262.6908 L1369.6671 250.1908" clip-path="url(#clipPath2)"/>
      <path d="M1369.6671 242.1908 L1364.6671 254.1908 L1369.6671 251.1908 L1374.6671 254.1908 Z" clip-path="url(#clipPath2)" stroke="none"/>
      <text x="1215.1832" xml:space="preserve" y="282.963" clip-path="url(#clipPath2)" font-family="sans-serif" stroke="none">intro:R24 has Related Entity</text>
      <path fill="none" d="M1278.7477 507.8059 L1278.7477 528.306 L957.3369 528.306 L957.3369 819.7959" clip-path="url(#clipPath2)"/>
      <path d="M957.3369 827.7959 L962.3369 815.7959 L957.3369 818.7959 L952.3369 815.7959 Z" clip-path="url(#clipPath2)" stroke="none"/>
      <text x="959.3369" xml:space="preserve" y="607.7227" clip-path="url(#clipPath2)" font-family="sans-serif" stroke="none">intro:R24 has Related Entity</text>
      <path fill="none" d="M1345.4313 507.8059 L1345.4312 661.4862" clip-path="url(#clipPath2)"/>
      <path d="M1345.4312 669.4862 L1350.4312 657.4862 L1345.4312 660.4862 L1340.4312 657.4862 Z" clip-path="url(#clipPath2)" stroke="none"/>
      <text x="1246.3774" xml:space="preserve" y="535.5027" clip-path="url(#clipPath2)" font-family="sans-serif" stroke="none">intro:R24 has Related Entity</text>
      <path fill="none" d="M1456.5706 507.8059 L1456.5706 565.0257 L2066.363 565.0257 L2066.363 662.4162" clip-path="url(#clipPath2)"/>
      <path d="M2066.363 670.4162 L2071.363 658.4162 L2066.363 661.4162 L2061.363 658.4162 Z" clip-path="url(#clipPath2)" stroke="none"/>
      <text x="1528.2238" xml:space="preserve" y="560.4944" clip-path="url(#clipPath2)" font-family="sans-serif" stroke="none">intro:R24 has Related Entity</text>
      <path fill="none" d="M1538.3741 358.0619 L1538.3741 399.5619 L1452.8658 399.5619 L1452.8658 412.0219" clip-path="url(#clipPath2)"/>
      <path d="M1452.8658 420.0219 L1457.8658 408.0219 L1452.8658 411.0219 L1447.8658 408.0219 Z" clip-path="url(#clipPath2)" stroke="none"/>
      <text x="1545.3741" xml:space="preserve" y="377.9721" clip-path="url(#clipPath2)" font-family="sans-serif" stroke="none">intro:R21 identifies</text>
      <path fill="none" d="M1665.4545 358.0619 L1665.4543 417.3093" clip-path="url(#clipPath2)"/>
      <path d="M1665.4543 425.3093 L1670.4543 413.3093 L1665.4543 416.3093 L1660.4543 413.3093 Z" clip-path="url(#clipPath2)" stroke="none"/>
      <text x="1672.4545" xml:space="preserve" y="379.4173" clip-path="url(#clipPath2)" font-family="sans-serif" stroke="none">intro:R17 actualizes Feature</text>
      <path fill="none" d="M506.1313 510.4219 L506.1313 1194.7502 L1380.5015 1194.7502 L1380.5015 1207.2102" clip-path="url(#clipPath2)"/>
      <path d="M1380.5015 1215.2102 L1385.5015 1203.2102 L1380.5015 1206.2102 L1375.5015 1203.2102 Z" clip-path="url(#clipPath2)" stroke="none"/>
      <text x="508.1313" xml:space="preserve" y="1085.2307" clip-path="url(#clipPath2)" font-family="sans-serif" stroke="none">e/crm:P2 has type</text>
      <path fill="none" d="M1364.6289 758.244 L1364.6289 816.5572" clip-path="url(#clipPath2)"/>
      <path d="M1364.629 824.5572 L1369.6288 812.5571 L1364.6289 815.5572 L1359.6289 812.5573 Z" clip-path="url(#clipPath2)" stroke="none"/>
      <text x="1284.1971" xml:space="preserve" y="785.9409" clip-path="url(#clipPath2)" font-family="sans-serif" stroke="none">intro:R18 shows Actualization</text>
      <path fill="none" d="M1367.6591 507.8059 L1367.6591 649.0257 L1438.2147 649.0257 L1438.2147 816.5468" clip-path="url(#clipPath2)"/>
      <path d="M1438.2147 824.5468 L1443.2147 812.5468 L1438.2147 815.5468 L1433.2147 812.5468 Z" clip-path="url(#clipPath2)" stroke="none"/>
      <text x="1409.6591" xml:space="preserve" y="653.5609" clip-path="url(#clipPath2)" font-family="sans-serif" stroke="none">intro:R24 has Related Entity</text>
      <path fill="none" d="M1585.3967 763.3613 L1585.3967 783.8613 L1511.8004 783.8613 L1511.8004 816.5498" clip-path="url(#clipPath2)"/>
      <path d="M1511.8004 824.5498 L1516.8004 812.5498 L1511.8004 815.5498 L1506.8004 812.5498 Z" clip-path="url(#clipPath2)" stroke="none"/>
      <text x="1471.5588" xml:space="preserve" y="778.1465" clip-path="url(#clipPath2)" font-family="sans-serif" stroke="none">intro:R21 identifies</text>
      <path fill="none" d="M1713.946 763.3613 L1713.946 812.5913" clip-path="url(#clipPath2)"/>
      <path d="M1713.946 820.5913 L1718.946 808.5913 L1713.946 811.5913 L1708.946 808.5913 Z" clip-path="url(#clipPath2)" stroke="none"/>
      <text x="1548.8738" xml:space="preserve" y="810.8399" clip-path="url(#clipPath2)" font-family="sans-serif" stroke="none">intro:R17 actualizes Feature</text>
      <path fill="none" d="M1478.7983 507.8059 L1478.7983 544.0257 L2243.3916 544.0257 L2243.3916 824.6616" clip-path="url(#clipPath2)"/>
      <path d="M2243.3916 832.6616 L2248.3916 820.6616 L2243.3916 823.6616 L2238.3916 820.6616 Z" clip-path="url(#clipPath2)" stroke="none"/>
      <text x="1907.7323" xml:space="preserve" y="557.6273" clip-path="url(#clipPath2)" font-family="sans-serif" stroke="none">intro:R24 has Related Entity</text>
      <path fill="none" d="M2115.2585 757.3278 L2115.2585 777.8278 L2168.7251 777.8278 L2168.7251 824.67" clip-path="url(#clipPath2)"/>
      <path d="M2168.7251 832.67 L2173.7251 820.67 L2168.7251 823.67 L2163.7251 820.67 Z" clip-path="url(#clipPath2)" stroke="none"/>
      <text x="2038.0856" xml:space="preserve" y="777.113" clip-path="url(#clipPath2)" font-family="sans-serif" stroke="none">intro:R18 shows Actualization</text>
      <path fill="none" d="M2393.0249 767.6508 L2393.0249 788.1508 L2318.0583 788.1508 L2318.0583 824.6533" clip-path="url(#clipPath2)"/>
      <path d="M2318.0583 832.6533 L2323.0583 820.6533 L2318.0583 823.6533 L2313.0583 820.6533 Z" clip-path="url(#clipPath2)" stroke="none"/>
      <text x="2395.0249" xml:space="preserve" y="782.4359" clip-path="url(#clipPath2)" font-family="sans-serif" stroke="none">intro:R21 identifies</text>
      <path fill="none" d="M2519.9338 767.6508 L2519.9338 810.9728" clip-path="url(#clipPath2)"/>
      <path d="M2519.9338 818.9728 L2524.9338 806.9728 L2519.9338 809.9728 L2514.9338 806.9728 Z" clip-path="url(#clipPath2)" stroke="none"/>
      <text x="2354.8616" xml:space="preserve" y="809.4666" clip-path="url(#clipPath2)" font-family="sans-serif" stroke="none">intro:R17 actualizes Feature</text>
      <path fill="none" d="M1421.5254 1174.2502 L1421.5254 1207.2102" clip-path="url(#clipPath2)"/>
      <path d="M1421.5254 1215.2102 L1426.5254 1203.2102 L1421.5254 1206.2102 L1416.5254 1203.2102 Z" clip-path="url(#clipPath2)" stroke="none"/>
      <text x="1343.4883" xml:space="preserve" y="1189.0354" clip-path="url(#clipPath2)" font-family="sans-serif" stroke="none">e/crm:P2 has type</text>
      <path fill="none" d="M1383.0254 906.804 L1383.0254 983.233" clip-path="url(#clipPath2)"/>
      <path d="M1383.0254 991.233 L1388.0254 979.233 L1383.0254 982.233 L1378.0254 979.233 Z" clip-path="url(#clipPath2)" stroke="none"/>
      <text x="1298.2207" xml:space="preserve" y="946.5079" clip-path="url(#clipPath2)" font-family="sans-serif" stroke="none">optional:</text>
      <text x="1267.0078" xml:space="preserve" y="960.6407" clip-path="url(#clipPath2)" font-family="sans-serif" stroke="none">e/crm:P67 refers to</text>
      <path fill="none" d="M2187.3916 898.6968 L2187.3916 952.2743 L1460.0254 952.2743 L1460.0254 983.2362" clip-path="url(#clipPath2)"/>
      <path d="M1460.0254 991.2362 L1465.0254 979.2362 L1460.0254 982.2362 L1455.0254 979.2362 Z" clip-path="url(#clipPath2)" stroke="none"/>
      <text x="1493.2383" xml:space="preserve" y="967.6102" clip-path="url(#clipPath2)" font-family="sans-serif" stroke="none">optional:</text>
      <text x="1462.0254" xml:space="preserve" y="981.743" clip-path="url(#clipPath2)" font-family="sans-serif" stroke="none">e/crm:P67 refers to</text>
      <path fill="none" d="M1421.5254 1061.2743 L1421.5254 1073.2352" clip-path="url(#clipPath2)"/>
      <path d="M1421.5254 1081.2352 L1426.5254 1069.2352 L1421.5254 1072.2352 L1416.5254 1069.2352 Z" clip-path="url(#clipPath2)" stroke="none"/>
      <text x="1276.2402" xml:space="preserve" y="1075.8094" clip-path="url(#clipPath2)" font-family="sans-serif" stroke="none">e/crm:P1 is identified by</text>
      <path fill="none" d="M2299.3916 898.6968 L2299.3916 973.2743 L1724.3588 973.2743 L1724.3588 985.7343" clip-path="url(#clipPath2)"/>
      <path d="M1724.3588 993.7343 L1729.3588 981.7343 L1724.3588 984.7343 L1719.3588 981.7343 Z" clip-path="url(#clipPath2)" stroke="none"/>
      <text x="1726.3588" xml:space="preserve" y="988.0594" clip-path="url(#clipPath2)" font-family="sans-serif" stroke="none">intro:R17 actualizes Feature</text>
      <path fill="none" d="M1493.4039 906.804 L1493.4039 931.2743 L1583.692 931.2743 L1583.692 985.7438" clip-path="url(#clipPath2)"/>
      <path d="M1583.692 993.7438 L1588.692 981.7438 L1583.692 984.7438 L1578.692 981.7438 Z" clip-path="url(#clipPath2)" stroke="none"/>
      <text x="1495.4039" xml:space="preserve" y="925.4055" clip-path="url(#clipPath2)" font-family="sans-serif" stroke="none">intro:R17 actualizes Feature</text>
      <path fill="none" d="M1654.0254 993.7438 L1654.0254 931.2743 L1859.7988 931.2743 L1859.7988 628.0257 L1389.887 628.0257 L1389.887 515.806" clip-path="url(#clipPath2)"/>
      <path d="M1389.887 507.806 L1384.887 519.806 L1389.887 516.806 L1394.887 519.806 Z" clip-path="url(#clipPath2)" stroke="none"/>
      <text x="1666.0254" xml:space="preserve" y="942.0594" clip-path="url(#clipPath2)" font-family="sans-serif" stroke="none">intro:R22 provides Similarity For Relation</text>
      <path fill="none" d="M2017.4677 757.3278 L2017.4677 777.8278 L2033.6184 777.8278 L2033.6184 818.3214" clip-path="url(#clipPath2)"/>
      <path d="M2033.6184 826.3214 L2038.6184 814.3214 L2033.6184 817.3214 L2028.6184 814.3214 Z" clip-path="url(#clipPath2)" stroke="none"/>
      <text x="1954.4993" xml:space="preserve" y="806.6334" clip-path="url(#clipPath2)" font-family="sans-serif" stroke="none">intro:R30 has Text Passage</text>
      <path fill="none" d="M1412.1147 507.8059 L1412.1147 607.0257 L1938.0723 607.0257 L1938.0721 818.342" clip-path="url(#clipPath2)"/>
      <path d="M1938.072 826.342 L1943.0721 814.3421 L1938.0721 817.342 L1933.0723 814.342 Z" clip-path="url(#clipPath2)" stroke="none"/>
      <text x="1725.788" xml:space="preserve" y="602.4944" clip-path="url(#clipPath2)" font-family="sans-serif" stroke="none">intro:R24 has Related Entity</text>
      <path fill="none" d="M1654.0254 1058.7743 L1654.0254 1073.2303" clip-path="url(#clipPath2)"/>
      <path d="M1654.0254 1081.2303 L1659.0254 1069.2303 L1654.0254 1072.2303 L1649.0254 1069.2303 Z" clip-path="url(#clipPath2)" stroke="none"/>
      <text x="1661.0254" xml:space="preserve" y="1074.5594" clip-path="url(#clipPath2)" font-family="sans-serif" stroke="none">e/crm:P1 is identified by</text>
      <path fill="none" d="M1654.0254 1174.2502 L1654.0254 1194.7502 L1462.5493 1194.7502 L1462.5493 1207.2102" clip-path="url(#clipPath2)"/>
      <path d="M1462.5493 1215.2102 L1467.5493 1203.2102 L1462.5493 1206.2102 L1457.5493 1203.2102 Z" clip-path="url(#clipPath2)" stroke="none"/>
      <text x="1656.0254" xml:space="preserve" y="1189.0354" clip-path="url(#clipPath2)" font-family="sans-serif" stroke="none">e/crm:P2 has type</text>
      <path fill="none" d="M1287.8381 758.244 L1287.8381 799.744 L1231.2113 799.744 L1231.2113 812.204" clip-path="url(#clipPath2)"/>
      <path d="M1231.2113 820.204 L1236.2113 808.204 L1231.2113 811.204 L1226.2113 808.204 Z" clip-path="url(#clipPath2)" stroke="none"/>
      <text x="1152.0922" xml:space="preserve" y="814.5292" clip-path="url(#clipPath2)" font-family="sans-serif" stroke="none">intro:R30 has Text Passage</text>
      <path fill="none" d="M1300.9756 507.8059 L1300.9756 549.306 L1137.9619 549.306 L1137.9618 812.2109" clip-path="url(#clipPath2)"/>
      <path d="M1137.9618 820.2109 L1142.9618 808.2109 L1137.9618 811.2109 L1132.9618 808.2109 Z" clip-path="url(#clipPath2)" stroke="none"/>
      <text x="974.372" xml:space="preserve" y="666.7319" clip-path="url(#clipPath2)" font-family="sans-serif" stroke="none">intro:R24 has Related Entity</text>
    </g>
  </g>
</svg>
